<svg width="111" height="19" viewBox="0 0 111 19" fill="none" xmlns="http://www.w3.org/2000/svg">
<path fill-rule="evenodd" clip-rule="evenodd" d="M2.9961 1.79C0.272567 3.168 -0.77939 6.843 0.949962 8.935C1.55165 9.663 3.26705 10.526 4.76131 10.852C6.25656 11.179 8.15128 11.892 8.97312 12.437C10.2821 13.305 10.2502 13.646 8.72009 15.182C7.22285 16.685 6.52154 16.764 3.80499 15.735C0.0514178 14.313 -1.28644 15.077 1.44506 17.082C5.55924 20.102 11.9616 18.12 11.9616 13.825C11.9616 10.887 9.51703 8.579 6.35518 8.532C3.15648 8.484 1.56061 6.083 3.46131 4.176C4.60192 3.031 5.74752 2.858 7.965 3.496C11.7455 4.585 13.0405 2.862 9.46622 1.498C6.1938 0.248999 6.02545 0.257001 2.9961 1.79ZM16.6108 1.167C16.2452 1.533 15.9463 5.583 15.9463 10.167C15.9463 16.78 16.2442 18.5 17.3908 18.5C18.4507 18.5 18.9149 16.969 19.1341 12.75L19.4329 7L21.8616 11.771C23.1964 14.395 24.7246 16.396 25.2565 16.218C25.7885 16.04 27.3853 13.729 28.8059 11.083L31.387 6.272L31.6838 12.386C32.145 21.897 33.8774 19.618 33.8774 9.5C33.8774 4.55 33.5417 0.505999 33.1302 0.511999C32.3204 0.525999 27.9203 6.985 27.8685 8.236C27.8515 8.656 27.223 9.813 26.4728 10.806C25.2227 12.461 24.8312 12.106 21.7918 6.556C18.4925 0.532 17.8789 -0.106 16.6108 1.167ZM39.8544 2C39.8544 3.309 40.8516 3.545 45.3453 3.3C48.3647 3.135 50.8352 2.55 50.8352 2C50.8352 1.45 48.3647 0.865001 45.3453 0.700001C40.8516 0.455001 39.8544 0.691 39.8544 2ZM56.7893 1.861C56.7893 3.156 57.8114 3.5 61.6636 3.5C66.4731 3.5 67.9604 4.542 67.019 7.25C66.751 8.021 64.7098 8.5 61.6875 8.5C58.9938 8.5 56.7893 8.95 56.7893 9.5C56.7893 10.05 58.9759 10.5 61.6486 10.5C67.2262 10.5 69.86 12.444 67.7472 15C66.9552 15.958 64.7517 16.5 61.6486 16.5C58.9759 16.5 56.7893 16.95 56.7893 17.5C56.7893 18.98 66.9652 18.653 68.9924 17.108C70.7785 15.747 71.3941 11.027 69.9059 10.103C69.4486 9.82 69.2633 8.305 69.4925 6.737C70.0384 3.004 68.2014 1.578 61.8757 0.826C57.5813 0.316 56.7893 0.477 56.7893 1.861ZM74.8788 7.303C75.1646 12.384 75.7972 14.932 77.145 16.427C79.4821 19.02 83.7347 19.091 86.8129 16.588C88.8371 14.943 89.1648 13.793 89.1648 8.338C89.1648 0.370999 87.2801 -0.545001 86.8667 7.223C86.5698 12.798 84.7299 16.519 82.2863 16.485C79.3107 16.443 78.189 14.331 77.7089 7.866C77.3791 3.426 76.7496 1.004 75.846 0.705C74.7532 0.343 74.561 1.657 74.8788 7.303ZM95.3082 1.167C93.6874 2.793 94.9954 3.5 99.6246 3.5C110.712 3.5 112.104 14.404 101.242 16.174L97.6323 16.762V12.631C97.6323 9.561 97.2348 8.5 96.0832 8.5C94.857 8.5 94.5979 9.489 94.838 13.25C95.1409 17.985 95.1538 18.001 99.006 18.318C104.326 18.756 108.573 16.769 110.097 13.131C112.952 6.316 107.909 0.5 99.1435 0.5C97.3992 0.5 95.6728 0.8 95.3082 1.167ZM39.8544 9.5C39.8544 10.056 42.5112 10.5 45.8314 10.5C49.1517 10.5 51.8084 10.056 51.8084 9.5C51.8084 8.944 49.1517 8.5 45.8314 8.5C42.5112 8.5 39.8544 8.944 39.8544 9.5ZM39.8544 17.5C39.8544 18.056 42.5112 18.5 45.8314 18.5C49.1517 18.5 51.8084 18.056 51.8084 17.5C51.8084 16.944 49.1517 16.5 45.8314 16.5C42.5112 16.5 39.8544 16.944 39.8544 17.5Z" fill="#434A5B"/>
<path fill-rule="evenodd" clip-rule="evenodd" d="M2.99653 1.794C1.18948 2.712 0.506102 3.867 0.506102 6.001C0.506102 8.571 1.06794 9.151 4.94504 10.589C9.9488 12.445 10.7597 13.597 8.42864 15.539C7.15155 16.603 6.18726 16.637 3.72971 15.706C0.0398945 14.309 -1.2631 15.094 1.44549 17.082C5.4481 20.02 11.9621 18.124 11.9621 14.022C11.9621 11.476 8.68665 8.5 5.88542 8.5C4.97891 8.5 3.63806 7.776 2.90687 6.892C0.916524 4.484 4.11224 2.387 8.04612 3.52C10.2178 4.145 10.9659 4.024 10.9659 3.047C10.9659 2.324 9.95777 1.462 8.72451 1.13C5.7878 0.339999 5.88044 0.330001 2.99653 1.794ZM16.391 1.78C15.3799 4.424 16.396 17.824 17.6382 18.236C18.4531 18.506 18.9273 16.785 19.1325 12.816L19.4333 7L21.862 11.771C23.1969 14.395 24.725 16.396 25.257 16.218C25.7889 16.04 27.3858 13.729 28.8063 11.083L31.3874 6.272L31.6842 12.386C32.1455 21.897 33.8778 19.618 33.8778 9.5C33.8778 4.55 33.5122 0.5 33.0649 0.5C32.6177 0.5 31.2001 2.413 29.9131 4.75C25.2022 13.308 25.505 13.216 22.0832 7.13C18.6743 1.067 17.1949 -0.323999 16.391 1.78ZM39.8548 2C39.8548 3.309 40.852 3.545 45.3457 3.3C48.3651 3.135 50.8356 2.55 50.8356 2C50.8356 1.45 48.3651 0.865001 45.3457 0.700001C40.852 0.455001 39.8548 0.691 39.8548 2ZM56.7897 1.861C56.7897 3.159 57.8148 3.5 61.7118 3.5C66.8909 3.5 68.1481 4.289 67.1459 6.91C66.7046 8.064 65.2004 8.5 61.664 8.5C58.9833 8.5 56.7897 8.95 56.7897 9.5C56.7897 10.05 58.9763 10.5 61.649 10.5C67.2266 10.5 69.8605 12.444 67.7476 15C66.9556 15.958 64.7521 16.5 61.649 16.5C58.9763 16.5 56.7897 16.95 56.7897 17.5C56.7897 18.05 59.1855 18.5 62.1143 18.5C66.0073 18.5 67.8821 18.008 69.0874 16.671C70.8317 14.737 71.3009 10.969 69.9063 10.103C69.4491 9.82 69.2638 8.305 69.4929 6.737C70.0388 3.004 68.2019 1.578 61.8762 0.826C57.5817 0.316 56.7897 0.477 56.7897 1.861ZM75.0794 2.004C74.0075 4.808 75.4998 14.602 77.3039 16.603C79.4446 18.978 83.7949 19.046 86.5991 16.75C88.3404 15.325 88.7479 13.885 88.7927 9C88.8684 0.752 88.8046 0.297 87.671 1C87.1231 1.34 86.6748 4.259 86.6748 7.488C86.6748 15.264 84.291 17.966 79.6359 15.465C78.039 14.607 77.7093 13.334 77.7093 8.024C77.7093 1.807 76.3465 -1.311 75.0794 2.004ZM95.3086 1.167C93.6879 2.793 94.9958 3.5 99.6251 3.5C105.292 3.5 108.591 5.865 108.591 9.927C108.591 12.986 104.29 16.5 100.548 16.5C98.0372 16.5 97.7214 16.118 97.4434 12.75C97.0231 7.643 95.1423 8.46 95.1423 13.75C95.1423 17.85 95.2608 18.011 98.5173 18.324C106.061 19.047 110.603 15.811 110.551 9.75C110.514 5.348 108.97 2.975 105.207 1.539C102.146 0.371 96.3198 0.152 95.3086 1.167ZM39.8548 9.5C39.8548 10.056 42.5116 10.5 45.8319 10.5C49.1521 10.5 51.8089 10.056 51.8089 9.5C51.8089 8.944 49.1521 8.5 45.8319 8.5C42.5116 8.5 39.8548 8.944 39.8548 9.5ZM39.8548 17.5C39.8548 18.056 42.5116 18.5 45.8319 18.5C49.1521 18.5 51.8089 18.056 51.8089 17.5C51.8089 16.944 49.1521 16.5 45.8319 16.5C42.5116 16.5 39.8548 16.944 39.8548 17.5Z" fill="#434A5B"/>
<path fill-rule="evenodd" clip-rule="evenodd" d="M2.99653 1.794C1.18948 2.712 0.506102 3.867 0.506102 6.001C0.506102 8.571 1.06794 9.151 4.94504 10.589C9.9488 12.445 10.7597 13.597 8.42864 15.539C7.15155 16.603 6.18726 16.637 3.72971 15.706C0.0398945 14.309 -1.2631 15.094 1.44549 17.082C5.4481 20.02 11.9621 18.124 11.9621 14.022C11.9621 11.476 8.68665 8.5 5.88542 8.5C4.97891 8.5 3.63806 7.776 2.90687 6.892C0.916524 4.484 4.11224 2.387 8.04612 3.52C10.2178 4.145 10.9659 4.024 10.9659 3.047C10.9659 2.324 9.95777 1.462 8.72451 1.13C5.7878 0.339999 5.88044 0.330001 2.99653 1.794ZM16.391 1.78C15.3799 4.424 16.396 17.824 17.6382 18.236C18.4531 18.506 18.9273 16.785 19.1325 12.816L19.4333 7L21.862 11.771C23.1969 14.395 24.725 16.396 25.257 16.218C25.7889 16.04 27.3858 13.729 28.8063 11.083L31.3874 6.272L31.6842 12.386C32.1455 21.897 33.8778 19.618 33.8778 9.5C33.8778 4.55 33.5122 0.5 33.0649 0.5C32.6177 0.5 31.2001 2.413 29.9131 4.75C25.2022 13.308 25.505 13.216 22.0832 7.13C18.6743 1.067 17.1949 -0.323999 16.391 1.78ZM39.8548 2C39.8548 3.152 41.1279 3.5 45.3338 3.5C49.5396 3.5 50.8127 3.152 50.8127 2C50.8127 0.848 49.5396 0.5 45.3338 0.5C41.1279 0.5 39.8548 0.848 39.8548 2ZM56.7897 1.861C56.7897 3.159 57.8148 3.5 61.7118 3.5C66.8909 3.5 68.1481 4.289 67.1459 6.91C66.7046 8.064 65.2004 8.5 61.664 8.5C58.9833 8.5 56.7897 8.95 56.7897 9.5C56.7897 10.05 58.9763 10.5 61.649 10.5C67.2266 10.5 69.8605 12.444 67.7476 15C66.9556 15.958 64.7521 16.5 61.649 16.5C58.9763 16.5 56.7897 16.95 56.7897 17.5C56.7897 18.05 59.1855 18.5 62.1143 18.5C66.0073 18.5 67.8821 18.008 69.0874 16.671C70.8317 14.737 71.3009 10.969 69.9063 10.103C69.4491 9.82 69.2638 8.305 69.4929 6.737C70.0388 3.004 68.2019 1.578 61.8762 0.826C57.5817 0.316 56.7897 0.477 56.7897 1.861ZM75.717 7.786C75.717 15.995 77.1654 18.5 81.9112 18.5C86.6958 18.5 88.7309 15.691 88.7927 9C88.8684 0.752 88.8046 0.297 87.671 1C87.1231 1.34 86.6748 4.259 86.6748 7.488C86.6748 15.264 84.291 17.966 79.6359 15.465C78.039 14.607 77.7093 13.334 77.7093 8.024C77.7093 4.501 77.261 1.34 76.7131 1C76.0836 0.609 75.717 3.105 75.717 7.786ZM95.3086 1.167C93.6879 2.793 94.9958 3.5 99.6251 3.5C105.292 3.5 108.591 5.865 108.591 9.927C108.591 13.005 104.282 16.5 100.487 16.5C97.8887 16.5 97.6327 16.186 97.6327 13C97.6327 10.498 97.1904 9.5 96.0817 9.5C94.8723 9.5 94.5974 10.438 94.8365 13.75C95.1264 17.778 95.3186 18.017 98.5173 18.324C106.061 19.047 110.603 15.811 110.551 9.75C110.514 5.348 108.97 2.975 105.207 1.539C102.146 0.371 96.3198 0.152 95.3086 1.167ZM39.8548 9.5C39.8548 10.05 42.3204 10.5 45.3338 10.5C48.3472 10.5 50.8127 10.05 50.8127 9.5C50.8127 8.95 48.3472 8.5 45.3338 8.5C42.3204 8.5 39.8548 8.95 39.8548 9.5ZM39.8548 17.5C39.8548 18.057 42.5305 18.5 45.8906 18.5C49.6611 18.5 51.6953 18.125 51.3108 17.5C50.9721 16.95 48.2565 16.5 45.275 16.5C42.2935 16.5 39.8548 16.95 39.8548 17.5Z" fill="#434A5B"/>
<path fill-rule="evenodd" clip-rule="evenodd" d="M2.9961 1.79389C1.18307 2.71489 0.505671 3.86489 0.505671 6.02489C0.505671 8.60089 1.02966 9.16289 4.49035 10.2999C9.85971 12.0619 10.7662 13.1289 8.67825 15.2249C7.22484 16.6839 6.5076 16.7589 3.80499 15.7349C0.0514178 14.3129 -1.28644 15.0769 1.44506 17.0819C5.72162 20.2209 12.4358 17.8859 11.8072 13.4769C11.4934 11.2769 10.3986 10.4359 4.05204 7.51689C-0.16276 5.57889 3.94345 1.76989 8.41028 3.47489C10.3757 4.22589 10.9655 4.13689 10.9655 3.09189C10.9655 2.34489 9.95734 1.46189 8.72408 1.12989C5.78737 0.339891 5.88001 0.329892 2.9961 1.79389ZM16.3906 1.77989C15.3795 4.42389 16.3956 17.8239 17.6378 18.2359C18.4527 18.5059 18.9269 16.7849 19.1321 12.8159L19.4329 6.99989L21.8795 11.7649C23.2253 14.3849 24.7535 16.3859 25.2754 16.2119C25.7974 16.0369 27.3853 13.7289 28.8059 11.0829L31.387 6.27189L31.6838 12.3859C32.145 21.8969 33.8774 19.6179 33.8774 9.49989C33.8774 4.54989 33.5118 0.499892 33.0645 0.499892C32.6172 0.499892 31.1997 2.41289 29.9126 4.74989C25.2017 13.3079 25.5046 13.2159 22.0827 7.12989C18.6738 1.06689 17.1945 -0.324108 16.3906 1.77989ZM39.8544 1.99989C39.8544 3.15189 41.1275 3.49989 45.3333 3.49989C49.5392 3.49989 50.8123 3.15189 50.8123 1.99989C50.8123 0.847892 49.5392 0.499892 45.3333 0.499892C41.1275 0.499892 39.8544 0.847892 39.8544 1.99989ZM56.7893 1.80789C56.7893 3.01789 58.0335 3.46689 62.0192 3.69789C66.485 3.95589 67.2491 4.29189 67.2491 5.99989C67.2491 7.70789 66.485 8.04389 62.0192 8.30189C55.4255 8.68289 55.1187 10.4999 61.6486 10.4999C67.2262 10.4999 69.86 12.4439 67.7472 14.9999C66.9552 15.9579 64.7517 16.4999 61.6486 16.4999C58.9759 16.4999 56.7893 16.9499 56.7893 17.4999C56.7893 18.0499 59.1851 18.4999 62.1138 18.4999C66.0069 18.4999 67.8817 18.0079 69.087 16.6709C70.8313 14.7369 71.3005 10.9689 69.9059 10.1029C69.4486 9.81989 69.2633 8.30489 69.4925 6.73689C70.0384 3.00389 68.2014 1.57789 61.8757 0.825892C57.642 0.322892 56.7893 0.486892 56.7893 1.80789ZM75.7165 7.78589C75.7165 13.6889 76.0861 15.5259 77.5385 16.8449C79.8277 18.9249 83.5753 18.9659 86.4523 16.9429C88.4057 15.5699 88.6667 14.5029 88.6667 7.88389C88.6667 3.13689 88.3011 0.608892 87.6706 0.999892C87.1227 1.33989 86.6744 4.25889 86.6744 7.48789C86.6744 15.2639 84.2906 17.9659 79.6355 15.4649C78.0386 14.6069 77.7089 13.3339 77.7089 8.02389C77.7089 4.50089 77.2606 1.33989 76.7127 0.999892C76.0831 0.608892 75.7165 3.10489 75.7165 7.78589ZM95.3082 1.16689C93.6874 2.79289 94.9954 3.49989 99.6246 3.49989C105.292 3.49989 108.59 5.86489 108.59 9.92689C108.59 13.0049 104.282 16.4999 100.486 16.4999C97.8883 16.4999 97.6323 16.1859 97.6323 12.9999C97.6323 10.4979 97.19 9.49989 96.0812 9.49989C94.8719 9.49989 94.5969 10.4379 94.836 13.7499C95.1259 17.7779 95.3182 18.0169 98.5169 18.3239C106.061 19.0469 110.602 15.8109 110.551 9.74989C110.534 7.68789 109.911 5.19589 109.168 4.21189C107.057 1.41889 97.2119 -0.745108 95.3082 1.16689ZM39.8544 9.49989C39.8544 10.0499 42.3199 10.4999 45.3333 10.4999C48.3468 10.4999 50.8123 10.0499 50.8123 9.49989C50.8123 8.94989 48.3468 8.49989 45.3333 8.49989C42.3199 8.49989 39.8544 8.94989 39.8544 9.49989ZM39.8544 17.4999C39.8544 18.0569 42.5301 18.4999 45.8902 18.4999C49.6607 18.4999 51.6949 18.1249 51.3104 17.4999C50.9717 16.9499 48.2561 16.4999 45.2746 16.4999C42.293 16.4999 39.8544 16.9499 39.8544 17.4999Z" fill="#434A5B"/>
<path fill-rule="evenodd" clip-rule="evenodd" d="M2.9961 1.79389C1.18307 2.71489 0.505671 3.86489 0.505671 6.02489C0.505671 8.60089 1.02966 9.16289 4.49035 10.2999C9.85971 12.0619 10.7662 13.1289 8.67825 15.2249C7.22484 16.6839 6.5076 16.7589 3.80499 15.7349C0.0514178 14.3129 -1.28644 15.0769 1.44506 17.0819C5.72162 20.2209 12.4358 17.8859 11.8072 13.4769C11.4934 11.2769 10.3986 10.4359 4.05204 7.51689C-0.16276 5.57889 3.94345 1.76989 8.41028 3.47489C10.3757 4.22589 10.9655 4.13689 10.9655 3.09189C10.9655 2.34489 9.95734 1.46189 8.72408 1.12989C5.78737 0.339891 5.88001 0.329892 2.9961 1.79389ZM16.3906 1.77989C15.3795 4.42389 16.3956 17.8239 17.6378 18.2359C18.4527 18.5059 18.9269 16.7849 19.1321 12.8159L19.4329 6.99989L21.8795 11.7649C23.2253 14.3849 24.7535 16.3859 25.2754 16.2119C25.7974 16.0369 27.3853 13.7289 28.8059 11.0829L31.387 6.27189L31.6838 12.3859C32.145 21.8969 33.8774 19.6179 33.8774 9.49989C33.8774 4.54989 33.5118 0.499892 33.0645 0.499892C32.6172 0.499892 31.1997 2.41289 29.9126 4.74989C25.2017 13.3079 25.5046 13.2159 22.0827 7.12989C18.6738 1.06689 17.1945 -0.324108 16.3906 1.77989ZM39.8544 1.99989C39.8544 3.15189 41.1275 3.49989 45.3333 3.49989C49.5392 3.49989 50.8123 3.15189 50.8123 1.99989C50.8123 0.847892 49.5392 0.499892 45.3333 0.499892C41.1275 0.499892 39.8544 0.847892 39.8544 1.99989ZM56.7893 1.80789C56.7893 3.01789 58.0335 3.46689 62.0192 3.69789C66.485 3.95589 67.2491 4.29189 67.2491 5.99989C67.2491 7.70789 66.485 8.04389 62.0192 8.30189C55.4255 8.68289 55.1187 10.4999 61.6486 10.4999C67.2262 10.4999 69.86 12.4439 67.7472 14.9999C66.9552 15.9579 64.7517 16.4999 61.6486 16.4999C58.9759 16.4999 56.7893 16.9499 56.7893 17.4999C56.7893 18.0499 59.1851 18.4999 62.1138 18.4999C66.0069 18.4999 67.8817 18.0079 69.087 16.6709C70.8313 14.7369 71.3005 10.9689 69.9059 10.1029C69.4486 9.81989 69.2633 8.30489 69.4925 6.73689C70.0384 3.00389 68.2014 1.57789 61.8757 0.825892C57.642 0.322892 56.7893 0.486892 56.7893 1.80789ZM75.7165 7.78589C75.7165 13.6889 76.0861 15.5259 77.5385 16.8449C79.8277 18.9249 83.5753 18.9659 86.4523 16.9429C88.4057 15.5699 88.6667 14.5029 88.6667 7.88389C88.6667 3.13689 88.3011 0.608892 87.6706 0.999892C87.1227 1.33989 86.6744 4.25889 86.6744 7.48789C86.6744 15.2639 84.2906 17.9659 79.6355 15.4649C78.0386 14.6069 77.7089 13.3339 77.7089 8.02389C77.7089 4.50089 77.2606 1.33989 76.7127 0.999892C76.0831 0.608892 75.7165 3.10489 75.7165 7.78589ZM95.3082 1.16689C93.6874 2.79289 94.9954 3.49989 99.6246 3.49989C105.292 3.49989 108.59 5.86489 108.59 9.92689C108.59 13.0049 104.282 16.4999 100.486 16.4999C97.8883 16.4999 97.6323 16.1859 97.6323 12.9999C97.6323 10.4979 97.19 9.49989 96.0812 9.49989C94.8719 9.49989 94.5969 10.4379 94.836 13.7499C95.1259 17.7779 95.3182 18.0169 98.5169 18.3239C106.061 19.0469 110.602 15.8109 110.551 9.74989C110.534 7.68789 109.911 5.19589 109.168 4.21189C107.057 1.41889 97.2119 -0.745108 95.3082 1.16689ZM39.8544 9.49989C39.8544 10.0499 42.3199 10.4999 45.3333 10.4999C48.3468 10.4999 50.8123 10.0499 50.8123 9.49989C50.8123 8.94989 48.3468 8.49989 45.3333 8.49989C42.3199 8.49989 39.8544 8.94989 39.8544 9.49989ZM39.8544 17.4999C39.8544 18.0569 42.5301 18.4999 45.8902 18.4999C49.6607 18.4999 51.6949 18.1249 51.3104 17.4999C50.9717 16.9499 48.2561 16.4999 45.2746 16.4999C42.293 16.4999 39.8544 16.9499 39.8544 17.4999Z" fill="#434A5B"/>
<path fill-rule="evenodd" clip-rule="evenodd" d="M2.9965 1.794C1.18347 2.715 0.506074 3.865 0.506074 6.025C0.506074 8.601 1.03006 9.163 4.49076 10.3C9.61007 11.98 10.6142 13.016 9.00839 14.958C7.49521 16.788 3.87313 16.98 2.2165 15.317C1.56799 14.666 0.69435 14.478 0.274962 14.898C-0.892549 16.071 3.03834 18.5 6.10455 18.5C9.46762 18.5 12.1692 15.951 11.7658 13.159C11.5008 11.321 10.1062 10.301 4.05244 7.517C-0.162357 5.579 3.94386 1.77 8.41069 3.475C11.438 4.631 11.9361 3.092 9.03927 1.535C6.59865 0.224 6.0408 0.248001 2.9965 1.794ZM31.5607 2.5C30.5595 3.875 28.7256 6.737 27.4834 8.861L25.227 12.721L22.0722 7.111C17.4091 -1.185 15.7953 -0.487 16.1559 9.67C16.3412 14.901 16.8742 17.982 17.6382 18.236C18.4531 18.506 18.9273 16.786 19.1325 12.816L19.4333 7L21.8291 11.659C23.2586 14.438 24.7369 16.121 25.492 15.83C26.1893 15.562 27.7982 13.24 29.0683 10.671L31.3774 6L31.9163 12.5C32.6615 21.507 34.0441 17.897 33.6736 7.912L33.3797 0L31.5607 2.5ZM39.8548 2.5C39.8548 3.05 42.3203 3.5 45.3337 3.5C48.3472 3.5 50.8127 3.05 50.8127 2.5C50.8127 1.95 48.3472 1.5 45.3337 1.5C42.3203 1.5 39.8548 1.95 39.8548 2.5ZM56.7897 2.448C56.7897 2.969 59.1427 3.531 62.0196 3.698C66.4854 3.956 67.2495 4.292 67.2495 6C67.2495 7.708 66.4854 8.044 62.0196 8.302C55.4259 8.683 55.1191 10.5 61.649 10.5C67.2266 10.5 69.8605 12.444 67.7476 15C66.9556 15.958 64.7521 16.5 61.649 16.5C58.9763 16.5 56.7897 16.95 56.7897 17.5C56.7897 19.105 66.075 18.664 68.5216 16.943C70.7949 15.345 71.534 11.113 69.7359 9.998C69.1861 9.657 69.0127 8.274 69.3494 6.926C70.3127 3.071 68.2267 1.5 62.1471 1.5C59.2004 1.5 56.7897 1.926 56.7897 2.448ZM75.7169 8.345C75.7169 13.706 76.1114 15.549 77.5389 16.845C79.8281 18.925 83.5757 18.966 86.4527 16.943C88.3793 15.589 88.6672 14.485 88.6672 8.443C88.6672 4.481 88.2398 1.5 87.671 1.5C87.1191 1.5 86.6748 4.143 86.6748 7.429C86.6748 13.659 85.1547 16.5 81.8225 16.5C78.7602 16.5 77.7093 14.276 77.7093 7.8C77.7093 4.267 77.272 1.5 76.7131 1.5C76.1463 1.5 75.7169 4.448 75.7169 8.345ZM94.6442 2.5C94.6442 3.05 97.0838 3.5 100.066 3.5C104.541 3.5 105.76 3.889 107.04 5.723C107.892 6.945 108.591 8.937 108.591 10.15C108.591 13.007 104.133 16.5 100.487 16.5C97.8887 16.5 97.6327 16.186 97.6327 13C97.6327 10.498 97.1904 9.5 96.0816 9.5C94.8723 9.5 94.5974 10.438 94.8364 13.75C95.1263 17.778 95.3186 18.017 98.5173 18.324C103.036 18.757 105.694 17.995 108.361 15.5C111.663 12.412 110.993 4.811 107.196 2.265C105.534 1.151 94.6442 1.355 94.6442 2.5ZM39.8548 9.5C39.8548 10.05 42.3203 10.5 45.3337 10.5C48.3472 10.5 50.8127 10.05 50.8127 9.5C50.8127 8.95 48.3472 8.5 45.3337 8.5C42.3203 8.5 39.8548 8.95 39.8548 9.5ZM39.8548 17.5C39.8548 18.057 42.5305 18.5 45.8906 18.5C49.6611 18.5 51.6953 18.125 51.3108 17.5C50.9721 16.95 48.2565 16.5 45.275 16.5C42.2934 16.5 39.8548 16.95 39.8548 17.5Z" fill="#434A5B"/>
<path fill-rule="evenodd" clip-rule="evenodd" d="M2.99602 1.79407C1.18299 2.71507 0.505591 3.86507 0.505591 6.02507C0.505591 8.60107 1.02958 9.16307 4.49027 10.3001C9.60959 11.9801 10.6137 13.0161 9.00791 14.9581C7.49472 16.7881 3.87265 16.9801 2.21601 15.3171C1.56751 14.6661 0.693867 14.4781 0.274479 14.8981C-0.87809 16.0561 3.02092 18.5001 6.02039 18.5001C8.92024 18.5001 11.9615 15.7841 11.9615 13.1941C11.9615 11.3061 8.73695 9.03107 4.73932 8.10007C1.55954 7.35907 1.14513 5.03007 3.92744 3.53507C5.20652 2.84707 6.71273 2.82707 8.4102 3.47507C10.0967 4.11907 10.9654 4.11107 10.9654 3.45007C10.9654 2.90007 9.8158 2.01207 8.4102 1.47507C5.34797 0.307068 6.00146 0.268068 2.99602 1.79407ZM16.9424 9.41707C16.9424 14.1391 17.3568 17.5001 17.9386 17.5001C18.4865 17.5001 18.9397 14.9131 18.9467 11.7501L18.9586 6.00007L21.5208 10.5001C22.9294 12.9751 24.2583 15.1771 24.4734 15.3931C25.2624 16.1851 28.0617 13.0611 29.6804 9.58007L31.345 6.00007L31.6648 11.7501C32.1489 20.4551 33.8773 18.6321 33.8773 9.41707C33.8773 -0.100932 32.8921 -0.479932 28.4452 7.32907C26.8274 10.1701 25.1897 12.1581 24.8052 11.7471C24.4207 11.3361 22.9961 8.99307 21.6403 6.54007C17.831 -0.349931 16.9424 0.194068 16.9424 9.41707ZM40.3524 2.50007C40.6911 3.05007 43.1825 3.50007 45.8901 3.50007C48.5977 3.50007 50.8122 3.05007 50.8122 2.50007C50.8122 1.95007 48.3198 1.50007 45.2745 1.50007C41.8367 1.50007 39.9699 1.87907 40.3524 2.50007ZM56.7892 2.44807C56.7892 2.96907 59.1422 3.53107 62.0191 3.69807C66.4849 3.95607 67.249 4.29207 67.249 6.00007C67.249 7.70807 66.4849 8.04407 62.0191 8.30207C55.4255 8.68307 55.1186 10.5001 61.6485 10.5001C67.2261 10.5001 69.86 12.4441 67.7471 15.0001C66.9551 15.9581 64.7516 16.5001 61.6485 16.5001C58.9758 16.5001 56.7892 16.9501 56.7892 17.5001C56.7892 19.1051 66.0745 18.6641 68.5211 16.9431C70.7944 15.3451 71.5335 11.1131 69.7355 9.99807C69.1856 9.65707 69.0122 8.27407 69.3489 6.92607C70.3122 3.07107 68.2262 1.50007 62.1466 1.50007C59.1999 1.50007 56.7892 1.92607 56.7892 2.44807ZM75.7165 8.34507C75.7165 16.0051 77.2655 18.5001 82.0212 18.5001C86.6903 18.5001 88.6667 15.3771 88.6667 8.00007C88.6667 4.33307 88.2323 1.50007 87.6705 1.50007C87.1186 1.50007 86.6743 4.14307 86.6743 7.42907C86.6743 13.6591 85.1542 16.5001 81.822 16.5001C78.7598 16.5001 77.7088 14.2761 77.7088 7.80007C77.7088 4.26707 77.2715 1.50007 76.7126 1.50007C76.1458 1.50007 75.7165 4.44807 75.7165 8.34507ZM95.6399 2.50007C95.6399 3.05007 97.8115 3.50007 100.466 3.50007C105.957 3.50007 108.59 5.52807 108.59 9.75607C108.59 13.0091 104.395 16.5001 100.486 16.5001C97.8882 16.5001 97.6322 16.1861 97.6322 13.0001C97.6322 10.4981 97.1899 9.50007 96.0812 9.50007C94.8718 9.50007 94.5969 10.4381 94.836 13.7501C95.1368 17.9261 95.2115 18.0061 99.1265 18.3331C104.823 18.8091 109.378 16.1311 110.181 11.8351C110.977 7.57307 109.083 2.86707 106.267 2.10907C102.742 1.15907 95.6399 1.42107 95.6399 2.50007ZM39.8543 9.50007C39.8543 10.0501 42.3198 10.5001 45.3333 10.5001C48.3467 10.5001 50.8122 10.0501 50.8122 9.50007C50.8122 8.95007 48.3467 8.50007 45.3333 8.50007C42.3198 8.50007 39.8543 8.95007 39.8543 9.50007ZM39.8543 17.5001C39.8543 18.0501 42.3198 18.5001 45.3333 18.5001C48.3467 18.5001 50.8122 18.0501 50.8122 17.5001C50.8122 16.9501 48.3467 16.5001 45.3333 16.5001C42.3198 16.5001 39.8543 16.9501 39.8543 17.5001Z" fill="#434A5B"/>
<path fill-rule="evenodd" clip-rule="evenodd" d="M1.5728 3.07102C0.712104 3.93602 0.0078125 5.26002 0.0078125 6.01502C0.0078125 7.68702 3.81916 10.5 6.08445 10.5C8.3866 10.5 10.1329 12.909 9.33794 14.988C8.78806 16.428 7.87656 16.625 4.09112 16.122C0.93724 15.703 -0.0240649 15.818 1.00398 16.491C1.82582 17.029 4.18874 17.476 6.2548 17.485C9.31802 17.497 10.2245 17.031 11.1639 14.963C12.5865 11.829 11.1131 10.064 5.98683 8.76002C-0.532111 7.10202 1.25701 1.94002 7.97718 3.01602C10.5353 3.42602 11.0663 3.30202 9.96952 2.55202C7.73112 1.02202 3.34498 1.29302 1.5728 3.07102ZM17.119 9.51002L17.2944 18L17.8662 11.165L18.437 4.33002L21.4255 9.91102C23.0692 12.981 24.8214 15.358 25.3195 15.193C25.8166 15.029 27.3856 12.729 28.8061 10.083L31.3872 5.27202L31.684 11.386C32.1194 20.358 33.8776 18.846 33.8776 9.50002C33.8776 5.10002 33.4702 1.50002 32.9721 1.50002C32.474 1.50002 30.4986 4.30302 28.582 7.72902L25.0974 13.957L23.2614 9.97902C22.2513 7.79002 20.4164 4.88002 19.1841 3.51002L16.9427 1.02002L17.119 9.51002ZM43.0922 2.21602C44.5994 2.44502 47.0639 2.44502 48.5711 2.21602C50.0783 1.98702 48.8451 1.80002 45.8316 1.80002C42.8182 1.80002 41.585 1.98702 43.0922 2.21602ZM59.778 2.18002C66.7393 2.89902 67.8958 3.43402 67.5631 5.78502C67.2912 7.70302 66.549 8.04002 62.0194 8.30202C55.0143 8.70702 55.3511 10.325 62.5175 10.7C67.8839 10.981 68.2455 11.158 68.2455 13.5C68.2455 15.824 67.8251 16.041 62.2685 16.582L56.2914 17.164L62.3183 17.332C68.5314 17.505 70.7359 16.482 70.7359 13.422C70.7359 12.5 70.0446 11.169 69.1998 10.465C68.1339 9.57702 67.9805 8.86602 68.7017 8.14202C70.3554 6.48202 69.9081 3.66102 67.8131 2.53502C66.7532 1.96602 63.7269 1.57202 61.089 1.66002C57.2527 1.78802 56.9898 1.89202 59.778 2.18002ZM75.7168 7.92902C75.7168 15.385 77.1293 17.5 82.1082 17.5C87.0064 17.5 88.667 14.997 88.667 7.61202C88.667 3.71302 88.2944 1.61302 87.6708 2.00002C87.1229 2.34002 86.6746 5.20102 86.6746 8.35902C86.6746 14.474 85.5589 16.5 82.1919 16.5C78.7491 16.5 77.7091 14.482 77.7091 7.80002C77.7091 4.26702 77.2718 1.50002 76.7129 1.50002C76.1521 1.50002 75.7168 4.31002 75.7168 7.92902ZM98.1306 2.17402C106.333 3.20202 108.59 4.89402 108.59 10.015C108.59 14.186 105.689 16.5 100.46 16.5C96.9143 16.5 96.7399 16.34 96.3654 12.75L95.9749 9.00002L95.8075 13.25L95.6402 17.5H100.076C106.529 17.5 109.429 15.858 110.193 11.771C111.467 4.95402 107.593 1.35202 99.3111 1.65002C96.1084 1.76502 95.8344 1.88602 98.1306 2.17402ZM40.8508 9.50002C40.8508 10.05 43.0922 10.5 45.8316 10.5C48.5711 10.5 50.8125 10.05 50.8125 9.50002C50.8125 8.95002 48.5711 8.50002 45.8316 8.50002C43.0922 8.50002 40.8508 8.95002 40.8508 9.50002ZM42.612 17.225C44.4021 17.447 47.0918 17.443 48.589 17.215C50.0863 16.986 48.6209 16.804 45.3336 16.81C42.0462 16.815 40.8219 17.002 42.612 17.225Z" fill="#434A5B"/>
</svg>
