<svg width="353" height="259" viewBox="0 0 353 259" fill="none" xmlns="http://www.w3.org/2000/svg">
<rect x="0.416992" y="0.75" width="351.833" height="192.5" rx="8.25" fill="#1C58FF"/>
<circle cx="174.334" cy="116" r="72.5133" stroke="#99DDBB" stroke-width="0.973333" stroke-dasharray="1.95 1.95"/>
<circle cx="174.334" cy="97" r="91.3867" stroke="#99DDBB" stroke-width="1.22667" stroke-dasharray="2.45 2.45"/>
<g filter="url(#filter0_d_236_1912)">
<circle cx="174.334" cy="120" r="27" fill="#3E70FC"/>
</g>
<path d="M173.926 106.804C178.262 110.412 183.234 110.263 184.655 110.263C184.344 130.784 182.061 126.69 173.926 132.396C165.807 126.69 163.524 130.784 163.213 110.263C164.619 110.263 169.591 110.412 173.926 106.804Z" stroke="white" stroke-width="5.57047" stroke-miterlimit="10" stroke-linecap="round" stroke-linejoin="round"/>
<g filter="url(#filter1_d_236_1912)">
<circle cx="95.334" cy="133" r="27" fill="#3E70FC"/>
<path d="M104.948 124.506C104.848 124.489 104.731 124.489 104.631 124.506C102.326 124.422 100.488 122.535 100.488 120.196C100.488 117.807 102.409 115.886 104.798 115.886C107.187 115.886 109.108 117.824 109.108 120.196C109.091 122.535 107.254 124.422 104.948 124.506Z" stroke="white" stroke-width="2.50568" stroke-linecap="round" stroke-linejoin="round"/>
<path d="M103.228 136.667C105.516 137.051 108.039 136.65 109.809 135.464C112.165 133.894 112.165 131.321 109.809 129.751C108.022 128.565 105.466 128.164 103.178 128.565" stroke="white" stroke-width="2.50568" stroke-linecap="round" stroke-linejoin="round"/>
<path d="M84.8528 124.506C84.953 124.489 85.0699 124.489 85.1702 124.506C87.4754 124.422 89.3129 122.535 89.3129 120.196C89.3129 117.807 87.3919 115.886 85.0031 115.886C82.6144 115.886 80.6934 117.824 80.6934 120.196C80.7101 122.535 82.5476 124.422 84.8528 124.506Z" stroke="white" stroke-width="2.50568" stroke-linecap="round" stroke-linejoin="round"/>
<path d="M86.5727 136.667C84.2842 137.051 81.7618 136.65 79.9911 135.464C77.6358 133.894 77.6358 131.321 79.9911 129.751C81.7785 128.565 84.3343 128.164 86.6228 128.565" stroke="white" stroke-width="2.50568" stroke-linecap="round" stroke-linejoin="round"/>
<path d="M94.925 136.984C94.8248 136.967 94.7079 136.967 94.6076 136.984C92.3024 136.901 90.4648 135.013 90.4648 132.674C90.4648 130.286 92.3859 128.365 94.7747 128.365C97.1634 128.365 99.0845 130.302 99.0845 132.674C99.0678 135.013 97.2303 136.917 94.925 136.984Z" stroke="white" stroke-width="2.50568" stroke-linecap="round" stroke-linejoin="round"/>
<path d="M90.0644 142.246C87.709 143.816 87.709 146.389 90.0644 147.959C92.7371 149.747 97.1137 149.747 99.7865 147.959C102.142 146.389 102.142 143.816 99.7865 142.246C97.1304 140.476 92.7371 140.476 90.0644 142.246Z" stroke="white" stroke-width="2.50568" stroke-linecap="round" stroke-linejoin="round"/>
</g>
<g filter="url(#filter2_d_236_1912)">
<circle cx="257.334" cy="110" r="27" fill="#3E70FC"/>
</g>
<path d="M244.452 107.411C244.596 107.571 244.749 107.724 244.909 107.869V126.55C244.909 126.954 245.07 127.342 245.356 127.628C245.642 127.914 246.03 128.075 246.434 128.075H270.834C271.239 128.075 271.626 127.914 271.912 127.628C272.198 127.342 272.359 126.954 272.359 126.55V107.872C272.519 107.727 272.672 107.574 272.817 107.414C273.394 106.68 273.794 105.822 273.987 104.909C274.181 103.995 274.161 103.049 273.931 102.144L272.313 95.6809C272.231 95.3508 272.041 95.0577 271.773 94.8483C271.505 94.6388 271.174 94.525 270.834 94.5249H246.434C246.094 94.525 245.764 94.6388 245.496 94.8483C245.228 95.0577 245.037 95.3508 244.955 95.6809L243.341 102.141C243.111 103.046 243.091 103.991 243.283 104.905C243.476 105.819 243.876 106.676 244.452 107.411ZM260.159 125.025H257.109V117.4H260.159V125.025ZM269.309 125.025H263.209V115.875C263.209 115.47 263.048 115.083 262.762 114.797C262.476 114.511 262.089 114.35 261.684 114.35H255.584C255.18 114.35 254.792 114.511 254.506 114.797C254.22 115.083 254.059 115.47 254.059 115.875V125.025H247.959V109.622C249.039 109.869 250.165 109.816 251.217 109.469C252.269 109.123 253.206 108.495 253.928 107.655C253.968 107.701 254.009 107.745 254.05 107.791C254.643 108.428 255.363 108.933 256.163 109.275C256.964 109.617 257.827 109.787 258.697 109.775C259.546 109.774 260.387 109.598 261.165 109.257C261.943 108.915 262.642 108.417 263.218 107.792C263.259 107.747 263.301 107.702 263.34 107.657C264.062 108.497 264.999 109.124 266.051 109.47C267.103 109.816 268.23 109.869 269.309 109.622V125.025ZM246.298 102.88L247.625 97.5749H269.643L270.97 102.88C271.084 103.337 271.092 103.813 270.995 104.273C270.897 104.733 270.696 105.165 270.407 105.535C270.117 105.906 269.747 106.206 269.324 106.412C268.902 106.618 268.437 106.725 267.967 106.725C267.193 106.72 266.448 106.427 265.879 105.902C265.309 105.378 264.955 104.66 264.887 103.888L264.823 103.126C264.785 102.726 264.592 102.357 264.283 102.099C263.975 101.841 263.578 101.714 263.178 101.748C262.777 101.781 262.406 101.971 262.145 102.277C261.884 102.582 261.754 102.978 261.783 103.379C261.82 103.805 261.768 104.234 261.629 104.638C261.49 105.042 261.268 105.413 260.977 105.726C260.67 106.055 260.297 106.314 259.882 106.487C259.468 106.659 259.021 106.74 258.572 106.725C258.144 106.725 257.721 106.636 257.33 106.465C256.938 106.293 256.586 106.042 256.297 105.728C256.007 105.413 255.786 105.042 255.646 104.638C255.507 104.234 255.453 103.805 255.488 103.379C255.521 102.976 255.393 102.576 255.132 102.268C254.87 101.959 254.497 101.767 254.094 101.734C253.894 101.715 253.693 101.736 253.501 101.796C253.31 101.856 253.132 101.954 252.979 102.084C252.826 102.213 252.7 102.372 252.609 102.551C252.518 102.73 252.463 102.926 252.449 103.126L252.385 103.888C252.316 104.66 251.962 105.379 251.392 105.903C250.821 106.428 250.076 106.721 249.301 106.725C248.831 106.725 248.367 106.618 247.944 106.412C247.521 106.206 247.151 105.906 246.862 105.535C246.572 105.165 246.371 104.733 246.273 104.273C246.176 103.813 246.184 103.337 246.298 102.88Z" fill="white"/>
<rect x="0.416992" y="0.75" width="351.833" height="192.5" rx="8.25" stroke="#F1F1F1" stroke-width="0.5"/>
<defs>
<filter id="filter0_d_236_1912" x="81.8794" y="60.2727" width="184.909" height="184.909" filterUnits="userSpaceOnUse" color-interpolation-filters="sRGB">
<feFlood flood-opacity="0" result="BackgroundImageFix"/>
<feColorMatrix in="SourceAlpha" type="matrix" values="0 0 0 0 0 0 0 0 0 0 0 0 0 0 0 0 0 0 127 0" result="hardAlpha"/>
<feOffset dy="32.7273"/>
<feGaussianBlur stdDeviation="32.7273"/>
<feComposite in2="hardAlpha" operator="out"/>
<feColorMatrix type="matrix" values="0 0 0 0 0.766667 0 0 0 0 0.766667 0 0 0 0 0.766667 0 0 0 0.25 0"/>
<feBlend mode="normal" in2="BackgroundImageFix" result="effect1_dropShadow_236_1912"/>
<feBlend mode="normal" in="SourceGraphic" in2="effect1_dropShadow_236_1912" result="shape"/>
</filter>
<filter id="filter1_d_236_1912" x="2.87943" y="73.2727" width="184.909" height="184.909" filterUnits="userSpaceOnUse" color-interpolation-filters="sRGB">
<feFlood flood-opacity="0" result="BackgroundImageFix"/>
<feColorMatrix in="SourceAlpha" type="matrix" values="0 0 0 0 0 0 0 0 0 0 0 0 0 0 0 0 0 0 127 0" result="hardAlpha"/>
<feOffset dy="32.7273"/>
<feGaussianBlur stdDeviation="32.7273"/>
<feComposite in2="hardAlpha" operator="out"/>
<feColorMatrix type="matrix" values="0 0 0 0 0.766667 0 0 0 0 0.766667 0 0 0 0 0.766667 0 0 0 0.25 0"/>
<feBlend mode="normal" in2="BackgroundImageFix" result="effect1_dropShadow_236_1912"/>
<feBlend mode="normal" in="SourceGraphic" in2="effect1_dropShadow_236_1912" result="shape"/>
</filter>
<filter id="filter2_d_236_1912" x="164.879" y="50.2727" width="184.909" height="184.909" filterUnits="userSpaceOnUse" color-interpolation-filters="sRGB">
<feFlood flood-opacity="0" result="BackgroundImageFix"/>
<feColorMatrix in="SourceAlpha" type="matrix" values="0 0 0 0 0 0 0 0 0 0 0 0 0 0 0 0 0 0 127 0" result="hardAlpha"/>
<feOffset dy="32.7273"/>
<feGaussianBlur stdDeviation="32.7273"/>
<feComposite in2="hardAlpha" operator="out"/>
<feColorMatrix type="matrix" values="0 0 0 0 0.766667 0 0 0 0 0.766667 0 0 0 0 0.766667 0 0 0 0.25 0"/>
<feBlend mode="normal" in2="BackgroundImageFix" result="effect1_dropShadow_236_1912"/>
<feBlend mode="normal" in="SourceGraphic" in2="effect1_dropShadow_236_1912" result="shape"/>
</filter>
</defs>
</svg>
