<svg width="353" height="194" viewBox="0 0 353 194" fill="none" xmlns="http://www.w3.org/2000/svg">
<rect x="0.75" y="0.75" width="351.833" height="192.5" rx="8.25" fill="#3B3D03"/>
<rect x="0.75" y="0.75" width="351.833" height="192.5" rx="8.25" stroke="#F1F1F1" stroke-width="0.5"/>
<path d="M316.484 133.371C314.816 132.651 314.503 130.403 315.895 129.151C317.405 127.795 319.751 128.614 320.027 130.595C320.303 132.576 318.292 134.151 316.484 133.371Z" fill="#04B45C" stroke="#434A5B" stroke-width="1.55556"/>
<rect x="311.973" y="15" width="10.5476" height="12" rx="5.27381" fill="#4B6EFF" stroke="#434A5B" stroke-width="2"/>
<rect x="1.15504" y="0.377" width="13.0727" height="3.48935" rx="1.74467" transform="matrix(0.870783 -0.491667 0.413054 0.910707 234.784 175.914)" fill="#F94D53" stroke="#434A5B" stroke-width="1.79935"/>
<path d="M33.753 162.018C33.9638 161.294 34.9894 161.294 35.2002 162.018C35.47 162.945 36.319 163.582 37.284 163.582H37.3497C38.1422 163.582 38.495 164.577 37.8794 165.076L37.6157 165.29C36.8987 165.871 36.6002 166.826 36.8583 167.712L36.9886 168.16C37.1886 168.846 36.3839 169.381 35.8283 168.931C35.0404 168.292 33.9128 168.292 33.1249 168.931C32.5693 169.381 31.7646 168.846 31.9645 168.16L32.0949 167.712C32.353 166.826 32.0545 165.871 31.3375 165.29L31.0738 165.076C30.4582 164.577 30.811 163.582 31.6035 163.582H31.6692C32.6342 163.582 33.4832 162.945 33.753 162.018Z" fill="#901EFF" stroke="#434A5B" stroke-width="1.41667"/>
<path d="M88.0826 170.938C89.6081 169.236 92.2737 169.236 93.7992 170.938C95.1058 172.396 95.1058 174.604 93.7992 176.062C92.2737 177.764 89.6081 177.764 88.0826 176.062C86.776 174.604 86.776 172.396 88.0826 170.938Z" fill="#E0E327" stroke="#434A5B"/>
<path d="M60.8123 38C60.8123 41.4195 58.3509 44 55.5385 44C52.726 44 50.2646 41.4195 50.2646 38C50.2646 34.5805 52.726 32 55.5385 32C58.3509 32 60.8123 34.5805 60.8123 38Z" fill="#E0E327" stroke="#434A5B" stroke-width="2"/>
<rect x="133.239" y="25" width="86.5225" height="72" rx="8" fill="#404215"/>
<g clip-path="url(#clip0_236_1853)">
<path d="M174.598 46.8226C176.109 46.8226 177.37 45.7284 177.734 44.2581H181.1V43.4032C181.1 40.1035 178.547 37.4194 175.411 37.4194V34H173.785V37.4194C170.649 37.4194 168.096 40.1035 168.096 43.4032V44.2581H171.462C171.826 45.7284 173.087 46.8226 174.598 46.8226ZM174.598 45.1129C173.999 45.1129 173.48 44.7667 173.198 44.2581H175.998C175.715 44.7667 175.197 45.1129 174.598 45.1129ZM173.785 39.129H175.411C177.374 39.129 179.015 40.6002 179.392 42.5484H169.803C170.18 40.6002 171.822 39.129 173.785 39.129Z" fill="white"/>
<path d="M169.761 47.4084L157.571 85.8738L159.113 86.4141L171.302 47.9488L169.761 47.4084Z" fill="white"/>
<path d="M179.426 47.4135L177.885 47.9543L190.086 86.4156L191.627 85.8748L179.426 47.4135Z" fill="white"/>
<path d="M174.597 66.4839C169.219 66.4839 164.844 71.0855 164.844 76.742C164.844 82.3984 169.219 87 174.597 87C179.975 87 184.35 82.3984 184.35 76.742C184.35 71.0855 179.975 66.4839 174.597 66.4839ZM174.597 85.2903C170.115 85.2903 166.469 81.4555 166.469 76.742C166.469 72.0284 170.115 68.1936 174.597 68.1936C179.079 68.1936 182.725 72.0284 182.725 76.742C182.725 81.4555 179.079 85.2903 174.597 85.2903Z" fill="white"/>
<path d="M175.816 71.613H175.41V69.9033H173.784V71.613H173.378C171.809 71.613 170.533 72.9551 170.533 74.6049C170.533 76.2548 171.809 77.5969 173.378 77.5969H175.816C176.488 77.5969 177.035 78.1722 177.035 78.8791C177.035 79.5861 176.488 80.1614 175.816 80.1614H173.378C172.706 80.1614 172.159 79.5861 172.159 78.8791V78.4517H170.533V78.8791C170.533 80.529 171.809 81.8711 173.378 81.8711H173.784V83.5807H175.41V81.8711H175.816C177.385 81.8711 178.661 80.529 178.661 78.8791C178.661 77.2293 177.385 75.8872 175.816 75.8872H173.378C172.706 75.8872 172.159 75.3119 172.159 74.6049C172.159 73.898 172.706 73.3227 173.378 73.3227H175.816C176.488 73.3227 177.035 73.898 177.035 74.6049V75.0324H178.661V74.6049C178.661 72.9551 177.385 71.613 175.816 71.613Z" fill="white"/>
<path d="M175.411 63.0645H173.785V64.7741H175.411V63.0645Z" fill="white"/>
<path d="M175.411 59.6453H173.785V61.3549H175.411V59.6453Z" fill="white"/>
<path d="M175.411 56.2258H173.785V57.9355H175.411V56.2258Z" fill="white"/>
</g>
<path d="M70.3939 135.104C70.3939 134.144 70.1059 133.28 69.7939 132.704C69.5059 132.128 68.7139 131.528 68.2579 131.24C68.0419 131.072 67.6819 130.904 67.2019 130.712C66.7219 130.52 66.3619 130.376 66.1219 130.304L64.9459 129.92C63.8179 129.56 63.0499 129.272 62.6419 129.008C62.2339 128.744 62.0419 128.336 62.0419 127.784C62.0419 126.68 62.7139 126.128 64.0339 126.128C65.7859 126.128 67.2019 127.232 67.9459 128.312L70.2259 125.288C68.8099 123.968 67.1059 123.2 65.1139 122.984V120.56H62.8339V122.96C60.0259 123.128 57.6979 124.568 57.6259 127.976C57.6259 130.736 59.1619 132.152 62.0659 133.016L62.9539 133.256L63.8899 133.52C64.1059 133.568 64.3699 133.664 64.6819 133.784C65.5219 134.144 65.8819 134.576 65.9539 135.44C65.9539 136.472 65.2099 137.072 63.8659 137.072C62.2579 137.072 60.8179 136.136 59.5459 134.288L56.9299 136.88C58.4659 138.824 60.1699 139.952 62.8339 140.144V142.688H65.1139V140.12C68.2819 139.76 70.3939 138.2 70.3939 135.104ZM79.3806 129.224C78.5406 129.224 77.7006 129.296 76.8366 129.416V126.488H84.5646V123.2H73.2366V132.584L73.6446 132.776C75.2046 132.488 76.5006 132.344 77.5326 132.344C79.9086 132.344 81.0846 133.136 81.0846 134.744C81.0846 136.472 79.8366 137.216 77.9886 137.216C76.6686 137.216 75.2766 136.496 73.7646 135.032L71.9166 137.864C73.5246 139.472 75.7086 140.288 78.4686 140.288C82.8846 140.288 85.4526 138.08 85.4526 134.528C85.4526 131.192 83.1486 129.224 79.3806 129.224ZM101.535 131.6C101.535 128.84 100.887 126.68 99.5674 125.168C98.2474 123.632 96.4954 122.864 94.2874 122.864C92.0794 122.864 90.3274 123.632 89.0074 125.168C87.6874 126.68 87.0394 128.84 87.0394 131.6C87.0394 134.36 87.6874 136.52 89.0074 138.056C90.3274 139.568 92.0794 140.336 94.2874 140.336C96.4954 140.336 98.2474 139.568 99.5674 138.032C100.887 136.496 101.535 134.36 101.535 131.6ZM91.4794 131.6C91.4794 128.024 92.4154 126.224 94.2874 126.224C96.1594 126.224 97.0954 128.024 97.0954 131.6C97.0954 135.176 96.1594 136.976 94.2874 136.976C92.4154 136.976 91.4794 135.176 91.4794 131.6ZM105.657 135.608C104.217 135.608 103.137 136.496 103.137 138.032C103.137 139.352 103.905 140.192 105.225 140.192C105.657 140.192 105.993 140.096 106.233 139.904C105.969 141.248 105.009 142.4 103.329 143.336L104.697 144.368C105.633 143.912 106.497 143.168 107.313 142.184C108.129 141.2 108.537 140.096 108.537 138.824C108.537 136.832 107.361 135.608 105.657 135.608ZM124.949 131.6C124.949 128.84 124.301 126.68 122.981 125.168C121.661 123.632 119.909 122.864 117.701 122.864C115.493 122.864 113.741 123.632 112.421 125.168C111.101 126.68 110.453 128.84 110.453 131.6C110.453 134.36 111.101 136.52 112.421 138.056C113.741 139.568 115.493 140.336 117.701 140.336C119.909 140.336 121.661 139.568 122.981 138.032C124.301 136.496 124.949 134.36 124.949 131.6ZM114.893 131.6C114.893 128.024 115.829 126.224 117.701 126.224C119.573 126.224 120.509 128.024 120.509 131.6C120.509 135.176 119.573 136.976 117.701 136.976C115.829 136.976 114.893 135.176 114.893 131.6ZM141.215 131.6C141.215 128.84 140.567 126.68 139.247 125.168C137.927 123.632 136.175 122.864 133.967 122.864C131.759 122.864 130.007 123.632 128.687 125.168C127.367 126.68 126.719 128.84 126.719 131.6C126.719 134.36 127.367 136.52 128.687 138.056C130.007 139.568 131.759 140.336 133.967 140.336C136.175 140.336 137.927 139.568 139.247 138.032C140.567 136.496 141.215 134.36 141.215 131.6ZM131.159 131.6C131.159 128.024 132.095 126.224 133.967 126.224C135.839 126.224 136.775 128.024 136.775 131.6C136.775 135.176 135.839 136.976 133.967 136.976C132.095 136.976 131.159 135.176 131.159 131.6ZM157.481 131.6C157.481 128.84 156.833 126.68 155.513 125.168C154.193 123.632 152.441 122.864 150.233 122.864C148.025 122.864 146.273 123.632 144.953 125.168C143.633 126.68 142.985 128.84 142.985 131.6C142.985 134.36 143.633 136.52 144.953 138.056C146.273 139.568 148.025 140.336 150.233 140.336C152.441 140.336 154.193 139.568 155.513 138.032C156.833 136.496 157.481 134.36 157.481 131.6ZM147.425 131.6C147.425 128.024 148.361 126.224 150.233 126.224C152.105 126.224 153.041 128.024 153.041 131.6C153.041 135.176 152.105 136.976 150.233 136.976C148.361 136.976 147.425 135.176 147.425 131.6ZM168.778 135.224V132.2H159.754V135.224H168.778ZM189.808 135.104C189.808 134.144 189.52 133.28 189.208 132.704C188.92 132.128 188.128 131.528 187.672 131.24C187.456 131.072 187.096 130.904 186.616 130.712C186.136 130.52 185.776 130.376 185.536 130.304L184.36 129.92C183.232 129.56 182.464 129.272 182.056 129.008C181.648 128.744 181.456 128.336 181.456 127.784C181.456 126.68 182.128 126.128 183.448 126.128C185.2 126.128 186.616 127.232 187.36 128.312L189.64 125.288C188.224 123.968 186.52 123.2 184.528 122.984V120.56H182.248V122.96C179.44 123.128 177.112 124.568 177.04 127.976C177.04 130.736 178.576 132.152 181.48 133.016L182.368 133.256L183.304 133.52C183.52 133.568 183.784 133.664 184.096 133.784C184.936 134.144 185.296 134.576 185.368 135.44C185.368 136.472 184.624 137.072 183.28 137.072C181.672 137.072 180.232 136.136 178.96 134.288L176.344 136.88C177.88 138.824 179.584 139.952 182.248 140.144V142.688H184.528V140.12C187.696 139.76 189.808 138.2 189.808 135.104ZM198.195 122.84C196.203 122.84 194.595 123.368 193.347 124.4C192.099 125.432 191.475 126.896 191.475 128.816C191.475 132.296 193.707 134.24 196.971 134.24C199.083 134.24 200.547 133.616 201.387 132.368C201.387 132.632 201.387 132.848 201.363 132.968C201.099 135.704 199.803 137.072 197.475 137.072C196.155 137.072 194.835 136.544 193.515 135.512L191.787 138.464C193.323 139.544 195.579 140.24 197.811 140.24C200.259 140.24 202.155 139.448 203.475 137.84C204.819 136.232 205.491 134.048 205.491 131.312C205.491 128.744 204.867 126.68 203.619 125.144C202.371 123.608 200.571 122.84 198.195 122.84ZM198.387 131.288C196.659 131.288 195.795 130.16 195.795 128.648C195.795 127.016 196.803 125.936 198.435 125.936C200.043 125.936 201.099 126.992 201.099 128.6C201.099 130.136 200.187 131.288 198.387 131.288ZM221.77 131.6C221.77 128.84 221.122 126.68 219.802 125.168C218.482 123.632 216.73 122.864 214.522 122.864C212.314 122.864 210.562 123.632 209.242 125.168C207.922 126.68 207.274 128.84 207.274 131.6C207.274 134.36 207.922 136.52 209.242 138.056C210.562 139.568 212.314 140.336 214.522 140.336C216.73 140.336 218.482 139.568 219.802 138.032C221.122 136.496 221.77 134.36 221.77 131.6ZM211.714 131.6C211.714 128.024 212.65 126.224 214.522 126.224C216.394 126.224 217.33 128.024 217.33 131.6C217.33 135.176 216.394 136.976 214.522 136.976C212.65 136.976 211.714 135.176 211.714 131.6ZM238.035 131.6C238.035 128.84 237.387 126.68 236.067 125.168C234.747 123.632 232.995 122.864 230.787 122.864C228.579 122.864 226.827 123.632 225.507 125.168C224.187 126.68 223.539 128.84 223.539 131.6C223.539 134.36 224.187 136.52 225.507 138.056C226.827 139.568 228.579 140.336 230.787 140.336C232.995 140.336 234.747 139.568 236.067 138.032C237.387 136.496 238.035 134.36 238.035 131.6ZM227.979 131.6C227.979 128.024 228.915 126.224 230.787 126.224C232.659 126.224 233.595 128.024 233.595 131.6C233.595 135.176 232.659 136.976 230.787 136.976C228.915 136.976 227.979 135.176 227.979 131.6ZM242.157 135.608C240.717 135.608 239.637 136.496 239.637 138.032C239.637 139.352 240.405 140.192 241.725 140.192C242.157 140.192 242.493 140.096 242.733 139.904C242.469 141.248 241.509 142.4 239.829 143.336L241.197 144.368C242.133 143.912 242.997 143.168 243.813 142.184C244.629 141.2 245.037 140.096 245.037 138.824C245.037 136.832 243.861 135.608 242.157 135.608ZM261.449 131.6C261.449 128.84 260.801 126.68 259.481 125.168C258.161 123.632 256.409 122.864 254.201 122.864C251.993 122.864 250.241 123.632 248.921 125.168C247.601 126.68 246.953 128.84 246.953 131.6C246.953 134.36 247.601 136.52 248.921 138.056C250.241 139.568 251.993 140.336 254.201 140.336C256.409 140.336 258.161 139.568 259.481 138.032C260.801 136.496 261.449 134.36 261.449 131.6ZM251.393 131.6C251.393 128.024 252.329 126.224 254.201 126.224C256.073 126.224 257.009 128.024 257.009 131.6C257.009 135.176 256.073 136.976 254.201 136.976C252.329 136.976 251.393 135.176 251.393 131.6ZM277.715 131.6C277.715 128.84 277.067 126.68 275.747 125.168C274.427 123.632 272.675 122.864 270.467 122.864C268.259 122.864 266.507 123.632 265.187 125.168C263.867 126.68 263.219 128.84 263.219 131.6C263.219 134.36 263.867 136.52 265.187 138.056C266.507 139.568 268.259 140.336 270.467 140.336C272.675 140.336 274.427 139.568 275.747 138.032C277.067 136.496 277.715 134.36 277.715 131.6ZM267.659 131.6C267.659 128.024 268.595 126.224 270.467 126.224C272.339 126.224 273.275 128.024 273.275 131.6C273.275 135.176 272.339 136.976 270.467 136.976C268.595 136.976 267.659 135.176 267.659 131.6ZM293.981 131.6C293.981 128.84 293.333 126.68 292.013 125.168C290.693 123.632 288.941 122.864 286.733 122.864C284.525 122.864 282.773 123.632 281.453 125.168C280.133 126.68 279.485 128.84 279.485 131.6C279.485 134.36 280.133 136.52 281.453 138.056C282.773 139.568 284.525 140.336 286.733 140.336C288.941 140.336 290.693 139.568 292.013 138.032C293.333 136.496 293.981 134.36 293.981 131.6ZM283.925 131.6C283.925 128.024 284.861 126.224 286.733 126.224C288.605 126.224 289.541 128.024 289.541 131.6C289.541 135.176 288.605 136.976 286.733 136.976C284.861 136.976 283.925 135.176 283.925 131.6Z" fill="#FCFCFC"/>
<defs>
<clipPath id="clip0_236_1853">
<rect x="149.403" y="34" width="50.3922" height="53" rx="8" fill="white"/>
</clipPath>
</defs>
</svg>
