<svg width="354" height="189" viewBox="0 0 354 189" fill="none" xmlns="http://www.w3.org/2000/svg">
<rect x="1.08301" y="0.75" width="351.833" height="187.5" rx="8.25" fill="white"/>
<path d="M33.313 86.144C33.313 85.584 33.145 85.08 32.963 84.744C32.795 84.408 32.333 84.058 32.067 83.89C31.941 83.792 31.731 83.694 31.451 83.582C31.171 83.47 30.961 83.386 30.821 83.344L30.135 83.12C29.477 82.91 29.029 82.742 28.791 82.588C28.553 82.434 28.441 82.196 28.441 81.874C28.441 81.23 28.833 80.908 29.603 80.908C30.625 80.908 31.451 81.552 31.885 82.182L33.215 80.418C32.389 79.648 31.395 79.2 30.233 79.074V77.66H28.903V79.06C27.265 79.158 25.907 79.998 25.865 81.986C25.865 83.596 26.761 84.422 28.455 84.926L28.973 85.066L29.519 85.22C29.645 85.248 29.799 85.304 29.981 85.374C30.471 85.584 30.681 85.836 30.723 86.34C30.723 86.942 30.289 87.292 29.505 87.292C28.567 87.292 27.727 86.746 26.985 85.668L25.459 87.18C26.355 88.314 27.349 88.972 28.903 89.084V90.568H30.233V89.07C32.081 88.86 33.313 87.95 33.313 86.144ZM38.5552 82.714C38.0652 82.714 37.5752 82.756 37.0712 82.826V81.118H41.5792V79.2H34.9712V84.674L35.2092 84.786C36.1192 84.618 36.8752 84.534 37.4772 84.534C38.8632 84.534 39.5492 84.996 39.5492 85.934C39.5492 86.942 38.8212 87.376 37.7432 87.376C36.9732 87.376 36.1612 86.956 35.2792 86.102L34.2012 87.754C35.1392 88.692 36.4132 89.168 38.0232 89.168C40.5992 89.168 42.0972 87.88 42.0972 85.808C42.0972 83.862 40.7532 82.714 38.5552 82.714ZM51.4789 84.1C51.4789 82.49 51.1009 81.23 50.3309 80.348C49.5609 79.452 48.5389 79.004 47.2509 79.004C45.9629 79.004 44.9409 79.452 44.1709 80.348C43.4009 81.23 43.0229 82.49 43.0229 84.1C43.0229 85.71 43.4009 86.97 44.1709 87.866C44.9409 88.748 45.9629 89.196 47.2509 89.196C48.5389 89.196 49.5609 88.748 50.3309 87.852C51.1009 86.956 51.4789 85.71 51.4789 84.1ZM45.6129 84.1C45.6129 82.014 46.1589 80.964 47.2509 80.964C48.3429 80.964 48.8889 82.014 48.8889 84.1C48.8889 86.186 48.3429 87.236 47.2509 87.236C46.1589 87.236 45.6129 86.186 45.6129 84.1ZM53.8832 86.438C53.0432 86.438 52.4132 86.956 52.4132 87.852C52.4132 88.622 52.8612 89.112 53.6312 89.112C53.8832 89.112 54.0792 89.056 54.2192 88.944C54.0652 89.728 53.5052 90.4 52.5252 90.946L53.3232 91.548C53.8692 91.282 54.3732 90.848 54.8492 90.274C55.3252 89.7 55.5632 89.056 55.5632 88.314C55.5632 87.152 54.8772 86.438 53.8832 86.438ZM65.1371 84.1C65.1371 82.49 64.7591 81.23 63.9891 80.348C63.2191 79.452 62.1971 79.004 60.9091 79.004C59.6211 79.004 58.5991 79.452 57.8291 80.348C57.0591 81.23 56.6811 82.49 56.6811 84.1C56.6811 85.71 57.0591 86.97 57.8291 87.866C58.5991 88.748 59.6211 89.196 60.9091 89.196C62.1971 89.196 63.2191 88.748 63.9891 87.852C64.7591 86.956 65.1371 85.71 65.1371 84.1ZM59.2711 84.1C59.2711 82.014 59.8171 80.964 60.9091 80.964C62.0011 80.964 62.5471 82.014 62.5471 84.1C62.5471 86.186 62.0011 87.236 60.9091 87.236C59.8171 87.236 59.2711 86.186 59.2711 84.1ZM74.6254 84.1C74.6254 82.49 74.2474 81.23 73.4774 80.348C72.7074 79.452 71.6854 79.004 70.3974 79.004C69.1094 79.004 68.0874 79.452 67.3174 80.348C66.5474 81.23 66.1694 82.49 66.1694 84.1C66.1694 85.71 66.5474 86.97 67.3174 87.866C68.0874 88.748 69.1094 89.196 70.3974 89.196C71.6854 89.196 72.7074 88.748 73.4774 87.852C74.2474 86.956 74.6254 85.71 74.6254 84.1ZM68.7594 84.1C68.7594 82.014 69.3054 80.964 70.3974 80.964C71.4894 80.964 72.0354 82.014 72.0354 84.1C72.0354 86.186 71.4894 87.236 70.3974 87.236C69.3054 87.236 68.7594 86.186 68.7594 84.1ZM84.1136 84.1C84.1136 82.49 83.7356 81.23 82.9656 80.348C82.1956 79.452 81.1736 79.004 79.8856 79.004C78.5976 79.004 77.5756 79.452 76.8056 80.348C76.0356 81.23 75.6576 82.49 75.6576 84.1C75.6576 85.71 76.0356 86.97 76.8056 87.866C77.5756 88.748 78.5976 89.196 79.8856 89.196C81.1736 89.196 82.1956 88.748 82.9656 87.852C83.7356 86.956 84.1136 85.71 84.1136 84.1ZM78.2476 84.1C78.2476 82.014 78.7936 80.964 79.8856 80.964C80.9776 80.964 81.5236 82.014 81.5236 84.1C81.5236 86.186 80.9776 87.236 79.8856 87.236C78.7936 87.236 78.2476 86.186 78.2476 84.1ZM90.7039 86.214V84.45H85.4399V86.214H90.7039ZM102.971 86.144C102.971 85.584 102.803 85.08 102.621 84.744C102.453 84.408 101.991 84.058 101.725 83.89C101.599 83.792 101.389 83.694 101.109 83.582C100.829 83.47 100.619 83.386 100.479 83.344L99.7932 83.12C99.1352 82.91 98.6872 82.742 98.4492 82.588C98.2112 82.434 98.0992 82.196 98.0992 81.874C98.0992 81.23 98.4912 80.908 99.2612 80.908C100.283 80.908 101.109 81.552 101.543 82.182L102.873 80.418C102.047 79.648 101.053 79.2 99.8912 79.074V77.66H98.5612V79.06C96.9232 79.158 95.5652 79.998 95.5232 81.986C95.5232 83.596 96.4192 84.422 98.1132 84.926L98.6312 85.066L99.1772 85.22C99.3032 85.248 99.4572 85.304 99.6392 85.374C100.129 85.584 100.339 85.836 100.381 86.34C100.381 86.942 99.9472 87.292 99.1632 87.292C98.2252 87.292 97.3852 86.746 96.6432 85.668L95.1172 87.18C96.0132 88.314 97.0072 88.972 98.5612 89.084V90.568H99.8912V89.07C101.739 88.86 102.971 87.95 102.971 86.144ZM107.863 78.99C106.701 78.99 105.763 79.298 105.035 79.9C104.307 80.502 103.943 81.356 103.943 82.476C103.943 84.506 105.245 85.64 107.149 85.64C108.381 85.64 109.235 85.276 109.725 84.548C109.725 84.702 109.725 84.828 109.711 84.898C109.557 86.494 108.801 87.292 107.443 87.292C106.673 87.292 105.903 86.984 105.133 86.382L104.125 88.104C105.021 88.734 106.337 89.14 107.639 89.14C109.067 89.14 110.173 88.678 110.943 87.74C111.727 86.802 112.119 85.528 112.119 83.932C112.119 82.434 111.755 81.23 111.027 80.334C110.299 79.438 109.249 78.99 107.863 78.99ZM107.975 83.918C106.967 83.918 106.463 83.26 106.463 82.378C106.463 81.426 107.051 80.796 108.003 80.796C108.941 80.796 109.557 81.412 109.557 82.35C109.557 83.246 109.025 83.918 107.975 83.918ZM121.616 84.1C121.616 82.49 121.238 81.23 120.468 80.348C119.698 79.452 118.676 79.004 117.388 79.004C116.1 79.004 115.078 79.452 114.308 80.348C113.538 81.23 113.16 82.49 113.16 84.1C113.16 85.71 113.538 86.97 114.308 87.866C115.078 88.748 116.1 89.196 117.388 89.196C118.676 89.196 119.698 88.748 120.468 87.852C121.238 86.956 121.616 85.71 121.616 84.1ZM115.75 84.1C115.75 82.014 116.296 80.964 117.388 80.964C118.48 80.964 119.026 82.014 119.026 84.1C119.026 86.186 118.48 87.236 117.388 87.236C116.296 87.236 115.75 86.186 115.75 84.1ZM131.104 84.1C131.104 82.49 130.726 81.23 129.956 80.348C129.186 79.452 128.164 79.004 126.876 79.004C125.588 79.004 124.566 79.452 123.796 80.348C123.026 81.23 122.648 82.49 122.648 84.1C122.648 85.71 123.026 86.97 123.796 87.866C124.566 88.748 125.588 89.196 126.876 89.196C128.164 89.196 129.186 88.748 129.956 87.852C130.726 86.956 131.104 85.71 131.104 84.1ZM125.238 84.1C125.238 82.014 125.784 80.964 126.876 80.964C127.968 80.964 128.514 82.014 128.514 84.1C128.514 86.186 127.968 87.236 126.876 87.236C125.784 87.236 125.238 86.186 125.238 84.1ZM133.508 86.438C132.668 86.438 132.038 86.956 132.038 87.852C132.038 88.622 132.486 89.112 133.256 89.112C133.508 89.112 133.704 89.056 133.844 88.944C133.69 89.728 133.13 90.4 132.15 90.946L132.948 91.548C133.494 91.282 133.998 90.848 134.474 90.274C134.95 89.7 135.188 89.056 135.188 88.314C135.188 87.152 134.502 86.438 133.508 86.438ZM144.762 84.1C144.762 82.49 144.384 81.23 143.614 80.348C142.844 79.452 141.822 79.004 140.534 79.004C139.246 79.004 138.224 79.452 137.454 80.348C136.684 81.23 136.306 82.49 136.306 84.1C136.306 85.71 136.684 86.97 137.454 87.866C138.224 88.748 139.246 89.196 140.534 89.196C141.822 89.196 142.844 88.748 143.614 87.852C144.384 86.956 144.762 85.71 144.762 84.1ZM138.896 84.1C138.896 82.014 139.442 80.964 140.534 80.964C141.626 80.964 142.172 82.014 142.172 84.1C142.172 86.186 141.626 87.236 140.534 87.236C139.442 87.236 138.896 86.186 138.896 84.1ZM154.25 84.1C154.25 82.49 153.872 81.23 153.102 80.348C152.332 79.452 151.31 79.004 150.022 79.004C148.734 79.004 147.712 79.452 146.942 80.348C146.172 81.23 145.794 82.49 145.794 84.1C145.794 85.71 146.172 86.97 146.942 87.866C147.712 88.748 148.734 89.196 150.022 89.196C151.31 89.196 152.332 88.748 153.102 87.852C153.872 86.956 154.25 85.71 154.25 84.1ZM148.384 84.1C148.384 82.014 148.93 80.964 150.022 80.964C151.114 80.964 151.66 82.014 151.66 84.1C151.66 86.186 151.114 87.236 150.022 87.236C148.93 87.236 148.384 86.186 148.384 84.1ZM163.739 84.1C163.739 82.49 163.361 81.23 162.591 80.348C161.821 79.452 160.799 79.004 159.511 79.004C158.223 79.004 157.201 79.452 156.431 80.348C155.661 81.23 155.283 82.49 155.283 84.1C155.283 85.71 155.661 86.97 156.431 87.866C157.201 88.748 158.223 89.196 159.511 89.196C160.799 89.196 161.821 88.748 162.591 87.852C163.361 86.956 163.739 85.71 163.739 84.1ZM157.873 84.1C157.873 82.014 158.419 80.964 159.511 80.964C160.603 80.964 161.149 82.014 161.149 84.1C161.149 86.186 160.603 87.236 159.511 87.236C158.419 87.236 157.873 86.186 157.873 84.1Z" fill="#9B35FF"/>
<rect x="242.666" y="78" width="86" height="5" rx="2.5" fill="#F1F1F1"/>
<rect x="271.666" y="90" width="57" height="5" rx="2.5" fill="#F1F1F1"/>
<circle cx="46.333" cy="42" r="21" fill="#F1F1F1"/>
<circle cx="307.666" cy="42" r="21" fill="#F1F1F1"/>
<circle cx="286.666" cy="42" r="21" fill="#F1F1F1"/>
<circle cx="265.666" cy="42" r="21" fill="#F1F1F1"/>
<rect x="25.333" y="105" width="303.333" height="63" rx="8" fill="#9B35FF"/>
<rect x="41.333" y="120.5" width="123" height="5" rx="2.5" fill="#F1F1F1"/>
<rect x="41.333" y="132.5" width="81" height="5" rx="2.5" fill="#F1F1F1"/>
<rect x="41.333" y="147.5" width="123" height="5" rx="2.5" fill="#F1F1F1"/>
<rect x="231.666" y="119" width="81" height="35" rx="16" fill="#B162FF"/>
<path d="M253.489 141.5V133.1H252.217V141.5H253.489ZM258.687 135.164C257.691 135.164 256.911 135.608 256.527 136.292L256.467 135.26H255.423V141.5H256.611V138.152C256.611 137.324 256.935 136.148 258.363 136.148C259.383 136.148 259.887 136.748 259.887 137.792V141.5H261.063V137.504C261.063 136.016 260.259 135.164 258.687 135.164ZM263.876 133.856C264.2 133.532 264.2 132.992 263.876 132.692C263.552 132.368 263.024 132.368 262.7 132.692C262.376 132.992 262.376 133.532 262.7 133.856C263.024 134.156 263.552 134.156 263.876 133.856ZM263.876 141.5V135.26H262.688V141.5H263.876ZM268.186 141.596C268.846 141.596 269.35 141.56 269.71 141.476L269.686 140.528C269.218 140.612 268.81 140.648 268.45 140.648C267.622 140.588 267.514 140.084 267.526 139.484V136.172H269.674V135.26H267.526V133.28H266.446V134.336C266.446 134.96 266.218 135.26 265.582 135.26H264.874V136.172H266.338V139.58C266.338 140.828 266.938 141.596 268.186 141.596ZM272.103 133.856C272.427 133.532 272.427 132.992 272.103 132.692C271.779 132.368 271.251 132.368 270.927 132.692C270.603 132.992 270.603 133.532 270.927 133.856C271.251 134.156 271.779 134.156 272.103 133.856ZM272.103 141.5V135.26H270.915V141.5H272.103ZM278.921 136.412C278.489 135.608 277.625 135.164 276.533 135.164C275.585 135.164 274.817 135.464 274.241 136.076C273.677 136.688 273.389 137.468 273.389 138.416C273.389 139.34 273.665 140.108 274.217 140.708C274.769 141.296 275.513 141.596 276.461 141.596C277.637 141.596 278.453 141.152 278.909 140.264L279.005 141.5H280.085V135.26H278.993L278.921 136.412ZM276.785 140.612C275.501 140.612 274.637 139.748 274.637 138.392C274.637 137 275.501 136.148 276.785 136.148C277.397 136.148 277.901 136.352 278.309 136.772C278.717 137.192 278.921 137.732 278.921 138.392C278.921 139.052 278.717 139.58 278.297 140C277.877 140.408 277.373 140.612 276.785 140.612ZM284.276 141.596C284.936 141.596 285.44 141.56 285.8 141.476L285.776 140.528C285.308 140.612 284.9 140.648 284.54 140.648C283.712 140.588 283.604 140.084 283.616 139.484V136.172H285.764V135.26H283.616V133.28H282.536V134.336C282.536 134.96 282.308 135.26 281.672 135.26H280.964V136.172H282.428V139.58C282.428 140.828 283.028 141.596 284.276 141.596ZM292.755 138.008C292.755 137.132 292.479 136.436 291.939 135.932C291.399 135.416 290.679 135.164 289.755 135.164C288.723 135.164 287.919 135.464 287.343 136.052C286.767 136.64 286.479 137.42 286.479 138.38C286.479 139.352 286.779 140.132 287.391 140.72C288.003 141.308 288.855 141.596 289.971 141.596C290.991 141.596 291.867 141.284 292.623 140.648L292.095 139.844C291.471 140.42 290.763 140.708 289.983 140.708C288.723 140.708 287.811 140.072 287.715 138.728H292.695C292.731 138.452 292.755 138.212 292.755 138.008ZM289.755 136.016C290.847 136.016 291.519 136.7 291.519 137.756C291.519 137.84 291.519 137.9 291.507 137.936H287.715C287.823 136.7 288.603 136.016 289.755 136.016Z" fill="#E6F7EE"/>
<rect x="1.08301" y="0.75" width="351.833" height="187.5" rx="8.25" stroke="#F1F1F1" stroke-width="0.5"/>
</svg>
