<svg width="111" height="22" viewBox="0 0 111 22" fill="none" xmlns="http://www.w3.org/2000/svg">
<path fill-rule="evenodd" clip-rule="evenodd" d="M1.5728 3.18246C0.712104 4.22738 0.0078125 5.82679 0.0078125 6.73883C0.0078125 8.75862 3.81916 12.1567 6.08445 12.1567C8.3866 12.1567 10.1329 15.0668 9.33794 17.5783C8.78806 19.3178 7.87656 19.5558 4.09112 18.9482C0.93724 18.442 -0.0240649 18.5809 1.00398 19.3939C1.82582 20.0438 4.18874 20.5838 6.2548 20.5947C9.31802 20.6092 10.2245 20.0462 11.1639 17.5481C12.5865 13.7622 11.1131 11.6301 5.98683 10.0548C-0.532111 8.05194 1.25701 1.8162 7.97718 3.11602C10.5353 3.6113 11.0663 3.46151 9.96952 2.5555C7.73112 0.70725 3.34498 1.03462 1.5728 3.18246ZM17.119 10.9608L17.2944 21.2168L17.8662 12.9601L18.437 4.70334L21.4255 11.4452C23.0692 15.1538 24.8214 18.0252 25.3195 17.8259C25.8166 17.6278 27.3856 14.8494 28.8061 11.653L31.3872 5.84128L31.684 13.227C32.1194 24.0653 33.8776 22.2388 33.8776 10.9487C33.8776 5.63351 33.4702 1.28468 32.9721 1.28468C32.474 1.28468 30.4986 4.67072 28.582 8.80936L25.0974 16.3328L23.2614 11.5274C22.2513 8.88305 20.4164 5.36774 19.1841 3.71277L16.9427 0.704834L17.119 10.9608ZM43.0922 2.14961C44.5994 2.42624 47.0639 2.42624 48.5711 2.14961C50.0783 1.87298 48.8451 1.64708 45.8316 1.64708C42.8182 1.64708 41.585 1.87298 43.0922 2.14961ZM59.778 2.10612C66.7393 2.97468 67.8958 3.62096 67.5631 6.46099C67.2912 8.77795 66.549 9.18505 62.0194 9.50155C55.0143 9.99079 55.3511 11.9453 62.5175 12.3983C67.8839 12.7378 68.2455 12.9516 68.2455 15.7808C68.2455 18.5882 67.8251 18.8503 62.2685 19.5039L56.2914 20.2069L62.3183 20.4099C68.5314 20.6188 70.7359 19.3831 70.7359 15.6865C70.7359 14.5728 70.0446 12.9649 69.1998 12.1145C68.1339 11.0418 67.9805 10.1829 68.7017 9.30827C70.3554 7.30297 69.9081 3.89518 67.8131 2.53497C66.7532 1.84761 63.7269 1.37165 61.089 1.47796C57.2527 1.63258 56.9898 1.75822 59.778 2.10612ZM75.7168 9.05096C75.7168 18.0579 77.1293 20.6128 82.1082 20.6128C87.0064 20.6128 88.667 17.5892 88.667 8.66802C88.667 3.958 88.2944 1.42118 87.6708 1.88868C87.1229 2.2994 86.6746 5.75551 86.6746 9.5704C86.6746 16.9574 85.5589 19.4048 82.1919 19.4048C78.7491 19.4048 77.7091 16.967 77.7091 8.89513C77.7091 4.62723 77.2718 1.28468 76.7129 1.28468C76.1521 1.28468 75.7168 4.67918 75.7168 9.05096ZM98.1306 2.09887C106.333 3.34071 108.59 5.38465 108.59 11.5709C108.59 16.6095 105.689 19.4048 100.46 19.4048C96.9143 19.4048 96.7399 19.2115 96.3654 14.8748L95.9749 10.3447L95.8075 15.4788L95.6402 20.6128H100.076C106.529 20.6128 109.429 18.6293 110.193 13.6921C111.467 5.45714 107.593 1.10589 99.3111 1.46588C96.1084 1.6048 95.8344 1.75097 98.1306 2.09887ZM40.8508 10.9487C40.8508 11.6131 43.0922 12.1567 45.8316 12.1567C48.5711 12.1567 50.8125 11.6131 50.8125 10.9487C50.8125 10.2843 48.5711 9.74073 45.8316 9.74073C43.0922 9.74073 40.8508 10.2843 40.8508 10.9487ZM42.612 20.2806C44.4021 20.5488 47.0918 20.5439 48.589 20.2685C50.0863 19.9919 48.6209 19.772 45.3336 19.7793C42.0462 19.7853 40.8219 20.0112 42.612 20.2806Z" fill="#0E3A22"/>
</svg>
