<svg width="18" height="19" viewBox="0 0 18 19" fill="none" xmlns="http://www.w3.org/2000/svg">
<g clip-path="url(#clip0_240_2112)">
<path d="M15.75 12.5V6.49999C15.7497 6.23694 15.6803 5.9786 15.5487 5.75086C15.417 5.52312 15.2278 5.33401 15 5.20249L9.75 2.20249C9.52197 2.07084 9.2633 2.00153 9 2.00153C8.7367 2.00153 8.47803 2.07084 8.25 2.20249L3 5.20249C2.7722 5.33401 2.58299 5.52312 2.45135 5.75086C2.31971 5.9786 2.25027 6.23694 2.25 6.49999V12.5C2.25027 12.763 2.31971 13.0214 2.45135 13.2491C2.58299 13.4769 2.7722 13.666 3 13.7975L8.25 16.7975C8.47803 16.9291 8.7367 16.9985 9 16.9985C9.2633 16.9985 9.52197 16.9291 9.75 16.7975L15 13.7975C15.2278 13.666 15.417 13.4769 15.5487 13.2491C15.6803 13.0214 15.7497 12.763 15.75 12.5Z" stroke="white" stroke-width="2" stroke-linecap="round" stroke-linejoin="round"/>
<path d="M2.45312 5.72L9.00062 9.5075L15.5481 5.72" stroke="white" stroke-width="2" stroke-linecap="round" stroke-linejoin="round"/>
<path d="M9 17.06V9.5" stroke="white" stroke-width="2" stroke-linecap="round" stroke-linejoin="round"/>
</g>
<defs>
<clipPath id="clip0_240_2112">
<rect width="18" height="18" fill="white" transform="translate(0 0.5)"/>
</clipPath>
</defs>
</svg>
