<svg width="608" height="354" viewBox="0 0 608 354" fill="none" xmlns="http://www.w3.org/2000/svg">
<path d="M14 215.84H11.108V213.272C11.108 212.336 10.832 211.604 10.292 211.064C9.752 210.524 9.104 210.26 8.36 210.26C7.616 210.26 6.968 210.536 6.428 211.076C5.876 211.616 5.6 212.348 5.6 213.284V216.884H14V215.84ZM6.428 215.84V213.464C6.428 212.108 7.256 211.364 8.36 211.364C8.9 211.364 9.368 211.544 9.74 211.916C10.112 212.276 10.292 212.792 10.292 213.464V215.84H6.428ZM7.688 206.221C7.688 207.133 8.372 207.745 9.344 207.997L7.76 208.081V208.909H14V207.913H11.348C10.52 207.913 9.848 207.769 9.308 207.493C8.768 207.217 8.504 206.797 8.504 206.233C8.504 206.077 8.528 205.873 8.576 205.633L7.76 205.609C7.712 205.789 7.688 205.993 7.688 206.221ZM14.096 201.786C14.096 200.814 13.808 200.01 13.22 199.386C12.632 198.75 11.864 198.438 10.892 198.438C9.92 198.438 9.152 198.75 8.564 199.386C7.976 200.01 7.676 200.814 7.676 201.786C7.676 202.782 7.964 203.586 8.552 204.21C9.14 204.834 9.92 205.146 10.892 205.146C11.864 205.146 12.632 204.834 13.22 204.21C13.808 203.574 14.096 202.77 14.096 201.786ZM10.892 204.126C10.16 204.126 9.572 203.91 9.14 203.478C8.708 203.034 8.492 202.47 8.492 201.786C8.492 201.102 8.708 200.538 9.152 200.106C9.584 199.662 10.16 199.446 10.892 199.446C11.624 199.446 12.2 199.662 12.632 200.106C13.052 200.538 13.268 201.102 13.268 201.786C13.268 202.47 13.052 203.034 12.632 203.478C12.2 203.91 11.624 204.126 10.892 204.126ZM14 195.75H8.516V193.854H7.76V195.75H6.644C5.768 195.75 5.372 195.426 5.372 194.622C5.372 194.37 5.42 194.094 5.528 193.794L4.736 193.734C4.652 194.13 4.604 194.502 4.604 194.826C4.604 196.122 5.216 196.746 6.548 196.746H7.76V197.934H8.516V196.746H14V195.75ZM6.308 191.799C6.032 191.523 5.576 191.523 5.3 191.799C5.024 192.075 5.024 192.555 5.3 192.843C5.576 193.119 6.032 193.119 6.308 192.843C6.584 192.555 6.584 192.075 6.308 191.799ZM14 191.823H7.76V192.819H14V191.823ZM14.084 187.558C14.084 186.91 14.048 186.418 13.964 186.07L13.184 186.094C13.268 186.55 13.304 186.97 13.304 187.366C13.304 187.786 13.148 188.05 12.896 188.182C12.62 188.29 12.416 188.314 12.08 188.314H8.516V186.118H7.76V188.314H5.804V189.214H6.92C7.484 189.214 7.76 189.43 7.76 190.006V190.786H8.516V189.298H12.152C13.436 189.298 14.084 188.722 14.084 187.558ZM14 180.52H9.236L7.124 180.604V180.592L11.876 177.22V176.98L7.124 173.608V173.596L9.236 173.692H14V172.624H5.6V173.68L10.388 177.052L5.6 180.472V181.54H14V180.52ZM14.084 168.056C14.084 166.328 13.136 165.332 11.408 165.332H7.76V166.328H11.492C12.632 166.328 13.328 167.036 13.328 168.056C13.328 169.064 12.632 169.784 11.492 169.784H7.76V170.768H11.408C13.1 170.768 14.084 169.772 14.084 168.056ZM14 162.714H4.736V163.71H14V162.714ZM14.084 158.448C14.084 157.8 14.048 157.308 13.964 156.96L13.184 156.984C13.268 157.44 13.304 157.86 13.304 158.256C13.304 158.676 13.148 158.94 12.896 159.072C12.62 159.18 12.416 159.204 12.08 159.204H8.516V157.008H7.76V159.204H5.804V160.104H6.92C7.484 160.104 7.76 160.32 7.76 160.896V161.676H8.516V160.188H12.152C13.436 160.188 14.084 159.612 14.084 158.448ZM6.308 154.744C6.032 154.468 5.576 154.468 5.3 154.744C5.024 155.02 5.024 155.5 5.3 155.788C5.576 156.064 6.032 156.064 6.308 155.788C6.584 155.5 6.584 155.02 6.308 154.744ZM14 154.768H7.76V155.764H14V154.768ZM7.676 149.519C7.676 150.575 8.132 151.559 8.996 152.027L7.76 152.135L7.76 152.987H16.04V151.991H12.896C13.664 151.511 14.084 150.599 14.084 149.531C14.084 148.559 13.784 147.791 13.184 147.227C12.572 146.663 11.804 146.375 10.88 146.375C9.956 146.375 9.188 146.651 8.588 147.215C7.976 147.779 7.676 148.547 7.676 149.519ZM13.268 149.711C13.268 150.371 13.04 150.911 12.596 151.355C12.14 151.799 11.564 152.015 10.88 152.015C10.172 152.015 9.608 151.799 9.164 151.355C8.72 150.911 8.492 150.359 8.492 149.699C8.492 149.015 8.708 148.451 9.14 148.031C9.572 147.611 10.148 147.395 10.88 147.395C12.332 147.395 13.268 148.319 13.268 149.711ZM14 144.034H4.736V145.03H14V144.034ZM10.508 136.493C8.744 136.493 7.676 137.621 7.676 139.433C7.676 140.453 7.976 141.245 8.564 141.821C9.152 142.397 9.932 142.685 10.88 142.685C11.852 142.685 12.632 142.385 13.22 141.785C13.796 141.173 14.084 140.321 14.084 139.217C14.084 138.221 13.76 137.345 13.124 136.601L12.452 137.069C13.04 137.693 13.34 138.413 13.34 139.217C13.34 140.597 12.62 141.569 11.192 141.653V136.541C10.976 136.505 10.748 136.493 10.508 136.493ZM8.396 139.433C8.396 138.245 9.14 137.513 10.328 137.513C10.412 137.513 10.472 137.513 10.508 137.525V141.641C9.164 141.557 8.396 140.717 8.396 139.433Z" fill="#434A5B"/>
<path d="M47.112 38.396V38.2H40.924V39.152H45.348L42.59 42.778V43.016H43.304C45.11 43.016 46.23 43.646 46.23 45.032C46.23 46.418 45.152 47.174 43.696 47.174C42.702 47.174 41.82 46.782 41.022 45.984L40.392 46.81C41.246 47.664 42.366 48.098 43.724 48.098C44.816 48.098 45.712 47.846 46.412 47.328C47.112 46.81 47.462 46.054 47.462 45.074C47.462 43.352 46.216 42.33 44.2 42.232L47.112 38.396ZM50.1111 47.916C50.4051 47.636 50.4051 47.16 50.1111 46.88C49.8311 46.586 49.3271 46.586 49.0331 46.88C48.7531 47.16 48.7531 47.636 49.0331 47.916C49.3271 48.196 49.8311 48.196 50.1111 47.916ZM55.8192 45.102C56.7012 44.248 57.3452 43.548 57.7232 42.988C58.1012 42.428 58.2972 41.784 58.2972 41.07C58.2972 39.152 56.9952 38.088 54.9232 38.088C53.7052 38.088 52.5992 38.55 51.6192 39.474L52.2912 40.3C53.2152 39.446 54.0692 39.012 54.8672 39.012C56.1692 39.012 57.0232 39.754 57.0232 41.098C57.0232 41.672 56.8692 42.176 56.5612 42.624C56.2672 43.072 55.7632 43.646 55.0632 44.346L51.6332 47.776V48H58.3532V47.034L53.7752 47.104L55.8192 45.102ZM63.3856 44.262L66.0176 40.72H64.8556L62.6996 43.59L60.5856 40.72H59.2976L61.9576 44.388L59.2556 48H60.4316L62.6576 45.004L64.8276 48H66.1016L63.3856 44.262Z" fill="#434A5B"/>
<path d="M83 43H572" stroke="#F1F1FF"/>
<path d="M44.704 112.102C45.586 111.248 46.23 110.548 46.608 109.988C46.986 109.428 47.182 108.784 47.182 108.07C47.182 106.152 45.88 105.088 43.808 105.088C42.59 105.088 41.484 105.55 40.504 106.474L41.176 107.3C42.1 106.446 42.954 106.012 43.752 106.012C45.054 106.012 45.908 106.754 45.908 108.098C45.908 108.672 45.754 109.176 45.446 109.624C45.152 110.072 44.648 110.646 43.948 111.346L40.518 114.776V115H47.238V114.034L42.66 114.104L44.704 112.102ZM49.9743 114.916C50.2683 114.636 50.2683 114.16 49.9743 113.88C49.6943 113.586 49.1903 113.586 48.8963 113.88C48.6163 114.16 48.6163 114.636 48.8963 114.916C49.1903 115.196 49.6943 115.196 49.9743 114.916ZM57.5725 108.854H56.4385L56.4245 111.934H52.8685L56.1585 105.2H54.9405L51.3425 112.62V112.816H56.4245V115H57.5725V112.816H59.1825V111.934H57.5725V108.854ZM63.5587 108.994C62.9007 108.994 62.2567 109.05 61.6127 109.162V106.138H66.5827V105.2H60.5907V110.058L60.7167 110.128C61.5567 109.974 62.3407 109.89 63.0827 109.89C64.8607 109.89 65.8547 110.59 65.8547 111.976C65.8547 113.418 64.7907 114.216 63.2087 114.216C62.3267 114.216 61.4447 113.852 60.5907 113.124L60.0447 113.978C60.8707 114.734 61.9627 115.112 63.3067 115.112C64.4687 115.112 65.3787 114.832 66.0647 114.258C66.7507 113.684 67.0867 112.914 67.0867 111.934C67.0867 110.072 65.7847 108.994 63.5587 108.994ZM72.0672 111.262L74.6992 107.72H73.5372L71.3812 110.59L69.2672 107.72H67.9792L70.6392 111.388L67.9372 115H69.1132L71.3392 112.004L73.5092 115H74.7832L72.0672 111.262Z" fill="#434A5B"/>
<path d="M92 110H581" stroke="#F1F1FF"/>
<path d="M47.112 182V181.118H44.424V172.13H44.2L40.7 172.536L40.742 173.502L43.248 173.208V181.118H40.476V182H47.112ZM49.4958 181.916C49.7898 181.636 49.7898 181.16 49.4958 180.88C49.2158 180.586 48.7118 180.586 48.4178 180.88C48.1378 181.16 48.1378 181.636 48.4178 181.916C48.7118 182.196 49.2158 182.196 49.4958 181.916ZM50.836 173.152H56.1L51.634 182H52.922L57.696 172.438V172.2H50.836V173.152ZM62.4149 178.262L65.0469 174.72H63.8849L61.7289 177.59L59.6149 174.72H58.3269L60.9869 178.388L58.2849 182H59.4609L61.6869 179.004L63.8569 182H65.1309L62.4149 178.262Z" fill="#434A5B"/>
<path d="M82 177H571" stroke="#F1F1FF"/>
<path d="M40.77 244.086C40.77 245.64 41.106 246.858 41.764 247.768C42.422 248.678 43.374 249.126 44.606 249.126C45.838 249.126 46.79 248.678 47.448 247.768C48.12 246.858 48.456 245.626 48.456 244.086C48.456 242.56 48.12 241.342 47.462 240.432C46.804 239.522 45.852 239.074 44.62 239.074C43.374 239.074 42.422 239.522 41.764 240.432C41.106 241.328 40.77 242.546 40.77 244.086ZM47.224 244.086C47.224 246.62 46.398 248.16 44.62 248.16C42.842 248.16 42.002 246.62 42.002 244.086C42.002 241.566 42.842 240.04 44.62 240.04C46.37 240.04 47.224 241.566 47.224 244.086ZM51.3005 248.916C51.5945 248.636 51.5945 248.16 51.3005 247.88C51.0205 247.586 50.5165 247.586 50.2225 247.88C49.9425 248.16 49.9425 248.636 50.2225 248.916C50.5165 249.196 51.0205 249.196 51.3005 248.916ZM56.6027 239.074C55.5107 239.074 54.6287 239.354 53.9707 239.928C53.3127 240.502 52.9767 241.286 52.9767 242.308C52.9767 243.274 53.2707 244.03 53.8727 244.562C54.4747 245.094 55.2587 245.36 56.2247 245.36C57.7367 245.36 58.8287 244.688 59.2907 243.568C59.3047 243.722 59.3187 243.988 59.3187 244.338C59.3047 245.472 59.0247 246.41 58.5067 247.124C57.9887 247.838 57.2187 248.188 56.2107 248.188C55.2447 248.188 54.3627 247.88 53.5367 247.278L53.0467 248.132C53.9287 248.776 55.0067 249.098 56.2807 249.098C57.6387 249.098 58.6887 248.622 59.4167 247.684C60.1447 246.732 60.5087 245.486 60.5087 243.946C60.5087 242.476 60.1867 241.286 59.5287 240.404C58.8847 239.522 57.9047 239.074 56.6027 239.074ZM56.5747 244.506C55.1747 244.506 54.2087 243.638 54.2087 242.252C54.2087 240.852 55.1607 239.956 56.6027 239.956C57.3167 239.956 57.9047 240.166 58.3667 240.572C58.8287 240.978 59.0667 241.51 59.0667 242.182C59.0667 242.812 58.8427 243.358 58.3807 243.82C57.9327 244.282 57.3307 244.506 56.5747 244.506ZM65.3497 242.994C64.6917 242.994 64.0477 243.05 63.4037 243.162V240.138H68.3737V239.2H62.3817V244.058L62.5077 244.128C63.3477 243.974 64.1317 243.89 64.8737 243.89C66.6517 243.89 67.6457 244.59 67.6457 245.976C67.6457 247.418 66.5817 248.216 64.9997 248.216C64.1177 248.216 63.2357 247.852 62.3817 247.124L61.8357 247.978C62.6617 248.734 63.7537 249.112 65.0977 249.112C66.2597 249.112 67.1697 248.832 67.8557 248.258C68.5417 247.684 68.8777 246.914 68.8777 245.934C68.8777 244.072 67.5757 242.994 65.3497 242.994ZM73.8582 245.262L76.4902 241.72H75.3282L73.1722 244.59L71.0582 241.72H69.7702L72.4302 245.388L69.7282 249H70.9042L73.1302 246.004L75.3002 249H76.5742L73.8582 245.262Z" fill="#434A5B"/>
<path d="M93 244H582" stroke="#F1F1FF"/>
<path d="M40.77 311.086C40.77 312.64 41.106 313.858 41.764 314.768C42.422 315.678 43.374 316.126 44.606 316.126C45.838 316.126 46.79 315.678 47.448 314.768C48.12 313.858 48.456 312.626 48.456 311.086C48.456 309.56 48.12 308.342 47.462 307.432C46.804 306.522 45.852 306.074 44.62 306.074C43.374 306.074 42.422 306.522 41.764 307.432C41.106 308.328 40.77 309.546 40.77 311.086ZM47.224 311.086C47.224 313.62 46.398 315.16 44.62 315.16C42.842 315.16 42.002 313.62 42.002 311.086C42.002 308.566 42.842 307.04 44.62 307.04C46.37 307.04 47.224 308.566 47.224 311.086ZM51.3005 315.916C51.5945 315.636 51.5945 315.16 51.3005 314.88C51.0205 314.586 50.5165 314.586 50.2225 314.88C49.9425 315.16 49.9425 315.636 50.2225 315.916C50.5165 316.196 51.0205 316.196 51.3005 315.916ZM57.0087 313.102C57.8907 312.248 58.5347 311.548 58.9127 310.988C59.2907 310.428 59.4867 309.784 59.4867 309.07C59.4867 307.152 58.1847 306.088 56.1127 306.088C54.8947 306.088 53.7887 306.55 52.8087 307.474L53.4807 308.3C54.4047 307.446 55.2587 307.012 56.0567 307.012C57.3587 307.012 58.2127 307.754 58.2127 309.098C58.2127 309.672 58.0587 310.176 57.7507 310.624C57.4567 311.072 56.9527 311.646 56.2527 312.346L52.8227 315.776V316H59.5427V315.034L54.9647 315.104L57.0087 313.102ZM64.575 312.262L67.207 308.72H66.045L63.889 311.59L61.775 308.72H60.487L63.147 312.388L60.445 316H61.621L63.847 313.004L66.017 316H67.291L64.575 312.262Z" fill="#434A5B"/>
<path d="M84 311H573" stroke="#F1F1FF"/>
<rect x="120.5" y="159" width="25" height="155" fill="#F6F6F6"/>
<path d="M98.068 343.112C99.216 343.112 100.154 342.776 100.868 342.09C101.582 341.404 101.946 340.452 101.946 339.22V333.2H100.714V339.15C100.714 341.04 99.65 342.132 98.068 342.132C96.458 342.132 95.408 341.054 95.408 339.15V333.2H94.176V339.22C94.176 340.438 94.526 341.39 95.24 342.076C95.954 342.762 96.892 343.112 98.068 343.112ZM107.499 343.098C108.549 343.098 109.389 342.874 110.033 342.44C110.691 341.992 111.013 341.32 111.013 340.41C110.943 339.29 110.509 338.66 109.571 338.226C108.913 337.904 108.535 337.792 107.709 337.568C107.079 337.4 106.771 337.316 106.281 337.092C106.043 336.98 105.861 336.868 105.735 336.742C105.497 336.504 105.273 336.126 105.273 335.636C105.273 334.53 106.169 334.012 107.415 334.012C108.381 334.012 109.319 334.362 110.229 335.076L110.817 334.236C109.837 333.466 108.689 333.088 107.387 333.088C106.379 333.088 105.553 333.298 104.923 333.732C104.293 334.152 103.971 334.81 103.971 335.692C103.971 337.26 105.077 338.072 106.883 338.52L107.765 338.744C107.975 338.786 108.227 338.87 108.507 338.982C108.801 339.094 109.011 339.206 109.151 339.332C109.445 339.57 109.697 339.962 109.697 340.452C109.697 341.558 108.843 342.146 107.485 342.146C106.295 342.146 105.245 341.656 104.335 340.676L103.607 341.488C104.643 342.566 105.945 343.098 107.499 343.098ZM116.854 343C118.268 343 119.388 342.538 120.228 341.614C121.068 340.69 121.488 339.514 121.474 338.1C121.474 336.686 121.054 335.51 120.2 334.586C119.36 333.662 118.24 333.2 116.854 333.2H113.046V343H116.854ZM114.264 334.166H116.574C117.708 334.166 118.59 334.53 119.22 335.244C119.864 335.958 120.186 336.91 120.186 338.072C120.186 339.262 119.878 340.214 119.248 340.942C118.618 341.67 117.722 342.034 116.56 342.034H114.264V334.166ZM132.979 343V342.118H130.291V333.13H130.067L126.567 333.536L126.609 334.502L129.115 334.208V342.118H126.343V343H132.979ZM137.62 336.826C136.122 336.826 135.03 337.54 134.54 338.66C134.512 338.408 134.498 338.128 134.498 337.834C134.512 336.84 134.75 335.986 135.184 335.3C135.73 334.432 136.57 333.998 137.718 333.998C138.67 333.998 139.538 334.292 140.336 334.894L140.812 334.04C139.916 333.396 138.852 333.074 137.634 333.074C136.234 333.074 135.17 333.578 134.428 334.572C133.686 335.524 133.322 336.756 133.322 338.254C133.322 339.388 133.532 340.368 133.952 341.18C134.582 342.454 135.674 343.098 137.242 343.098C138.348 343.098 139.23 342.818 139.888 342.244C140.56 341.67 140.896 340.886 140.896 339.878C140.896 338.912 140.588 338.156 139.986 337.624C139.384 337.092 138.586 336.826 137.62 336.826ZM137.242 342.23C136.108 342.23 135.212 341.656 134.89 340.746C134.806 340.522 134.764 340.27 134.764 339.99C134.764 339.36 134.988 338.814 135.436 338.352C135.898 337.89 136.5 337.666 137.27 337.666C138.67 337.666 139.65 338.562 139.65 339.92C139.65 341.32 138.684 342.23 137.242 342.23ZM143.117 341.67C142.655 341.67 142.333 341.95 142.333 342.412C142.333 342.804 142.571 343.07 142.977 343.07C143.173 343.07 143.313 343 143.383 342.86C143.453 343.21 143.383 343.588 143.145 343.98C142.921 344.386 142.613 344.694 142.235 344.904L142.655 345.212C143.439 344.764 144.097 343.896 144.097 342.93C144.097 342.16 143.677 341.67 143.117 341.67ZM145.641 338.086C145.641 339.64 145.977 340.858 146.635 341.768C147.293 342.678 148.245 343.126 149.477 343.126C150.709 343.126 151.661 342.678 152.319 341.768C152.991 340.858 153.327 339.626 153.327 338.086C153.327 336.56 152.991 335.342 152.333 334.432C151.675 333.522 150.723 333.074 149.491 333.074C148.245 333.074 147.293 333.522 146.635 334.432C145.977 335.328 145.641 336.546 145.641 338.086ZM152.095 338.086C152.095 340.62 151.269 342.16 149.491 342.16C147.713 342.16 146.873 340.62 146.873 338.086C146.873 335.566 147.713 334.04 149.491 334.04C151.241 334.04 152.095 335.566 152.095 338.086ZM154.87 338.086C154.87 339.64 155.206 340.858 155.864 341.768C156.522 342.678 157.474 343.126 158.706 343.126C159.938 343.126 160.89 342.678 161.548 341.768C162.22 340.858 162.556 339.626 162.556 338.086C162.556 336.56 162.22 335.342 161.562 334.432C160.904 333.522 159.952 333.074 158.72 333.074C157.474 333.074 156.522 333.522 155.864 334.432C155.206 335.328 154.87 336.546 154.87 338.086ZM161.324 338.086C161.324 340.62 160.498 342.16 158.72 342.16C156.942 342.16 156.102 340.62 156.102 338.086C156.102 335.566 156.942 334.04 158.72 334.04C160.47 334.04 161.324 335.566 161.324 338.086ZM164.098 338.086C164.098 339.64 164.434 340.858 165.092 341.768C165.75 342.678 166.702 343.126 167.934 343.126C169.166 343.126 170.118 342.678 170.776 341.768C171.448 340.858 171.784 339.626 171.784 338.086C171.784 336.56 171.448 335.342 170.79 334.432C170.132 333.522 169.18 333.074 167.948 333.074C166.702 333.074 165.75 333.522 165.092 334.432C164.434 335.328 164.098 336.546 164.098 338.086ZM170.552 338.086C170.552 340.62 169.726 342.16 167.948 342.16C166.17 342.16 165.33 340.62 165.33 338.086C165.33 335.566 166.17 334.04 167.948 334.04C169.698 334.04 170.552 335.566 170.552 338.086Z" fill="#434A5B"/>
<rect x="227" y="67" width="25" height="247" fill="#F6F6F6"/>
<path d="M205.068 343.112C206.216 343.112 207.154 342.776 207.868 342.09C208.582 341.404 208.946 340.452 208.946 339.22V333.2H207.714V339.15C207.714 341.04 206.65 342.132 205.068 342.132C203.458 342.132 202.408 341.054 202.408 339.15V333.2H201.176V339.22C201.176 340.438 201.526 341.39 202.24 342.076C202.954 342.762 203.892 343.112 205.068 343.112ZM214.499 343.098C215.549 343.098 216.389 342.874 217.033 342.44C217.691 341.992 218.013 341.32 218.013 340.41C217.943 339.29 217.509 338.66 216.571 338.226C215.913 337.904 215.535 337.792 214.709 337.568C214.079 337.4 213.771 337.316 213.281 337.092C213.043 336.98 212.861 336.868 212.735 336.742C212.497 336.504 212.273 336.126 212.273 335.636C212.273 334.53 213.169 334.012 214.415 334.012C215.381 334.012 216.319 334.362 217.229 335.076L217.817 334.236C216.837 333.466 215.689 333.088 214.387 333.088C213.379 333.088 212.553 333.298 211.923 333.732C211.293 334.152 210.971 334.81 210.971 335.692C210.971 337.26 212.077 338.072 213.883 338.52L214.765 338.744C214.975 338.786 215.227 338.87 215.507 338.982C215.801 339.094 216.011 339.206 216.151 339.332C216.445 339.57 216.697 339.962 216.697 340.452C216.697 341.558 215.843 342.146 214.485 342.146C213.295 342.146 212.245 341.656 211.335 340.676L210.607 341.488C211.643 342.566 212.945 343.098 214.499 343.098ZM223.854 343C225.268 343 226.388 342.538 227.228 341.614C228.068 340.69 228.488 339.514 228.474 338.1C228.474 336.686 228.054 335.51 227.2 334.586C226.36 333.662 225.24 333.2 223.854 333.2H220.046V343H223.854ZM221.264 334.166H223.574C224.708 334.166 225.59 334.53 226.22 335.244C226.864 335.958 227.186 336.91 227.186 338.072C227.186 339.262 226.878 340.214 226.248 340.942C225.618 341.67 224.722 342.034 223.56 342.034H221.264V334.166ZM239.979 343V342.118H237.291V333.13H237.067L233.567 333.536L233.609 334.502L236.115 334.208V342.118H233.343V343H239.979ZM240.395 334.152H245.659L241.193 343H242.481L247.255 333.438V333.2H240.395V334.152ZM249.173 341.67C248.711 341.67 248.389 341.95 248.389 342.412C248.389 342.804 248.627 343.07 249.033 343.07C249.229 343.07 249.369 343 249.439 342.86C249.509 343.21 249.439 343.588 249.201 343.98C248.977 344.386 248.669 344.694 248.291 344.904L248.711 345.212C249.495 344.764 250.153 343.896 250.153 342.93C250.153 342.16 249.733 341.67 249.173 341.67ZM251.698 338.086C251.698 339.64 252.034 340.858 252.692 341.768C253.35 342.678 254.302 343.126 255.534 343.126C256.766 343.126 257.718 342.678 258.376 341.768C259.048 340.858 259.384 339.626 259.384 338.086C259.384 336.56 259.048 335.342 258.39 334.432C257.732 333.522 256.78 333.074 255.548 333.074C254.302 333.074 253.35 333.522 252.692 334.432C252.034 335.328 251.698 336.546 251.698 338.086ZM258.152 338.086C258.152 340.62 257.326 342.16 255.548 342.16C253.77 342.16 252.93 340.62 252.93 338.086C252.93 335.566 253.77 334.04 255.548 334.04C257.298 334.04 258.152 335.566 258.152 338.086ZM260.926 338.086C260.926 339.64 261.262 340.858 261.92 341.768C262.578 342.678 263.53 343.126 264.762 343.126C265.994 343.126 266.946 342.678 267.604 341.768C268.276 340.858 268.612 339.626 268.612 338.086C268.612 336.56 268.276 335.342 267.618 334.432C266.96 333.522 266.008 333.074 264.776 333.074C263.53 333.074 262.578 333.522 261.92 334.432C261.262 335.328 260.926 336.546 260.926 338.086ZM267.38 338.086C267.38 340.62 266.554 342.16 264.776 342.16C262.998 342.16 262.158 340.62 262.158 338.086C262.158 335.566 262.998 334.04 264.776 334.04C266.526 334.04 267.38 335.566 267.38 338.086ZM270.155 338.086C270.155 339.64 270.491 340.858 271.149 341.768C271.807 342.678 272.759 343.126 273.991 343.126C275.223 343.126 276.175 342.678 276.833 341.768C277.505 340.858 277.841 339.626 277.841 338.086C277.841 336.56 277.505 335.342 276.847 334.432C276.189 333.522 275.237 333.074 274.005 333.074C272.759 333.074 271.807 333.522 271.149 334.432C270.491 335.328 270.155 336.546 270.155 338.086ZM276.609 338.086C276.609 340.62 275.783 342.16 274.005 342.16C272.227 342.16 271.387 340.62 271.387 338.086C271.387 335.566 272.227 334.04 274.005 334.04C275.755 334.04 276.609 335.566 276.609 338.086Z" fill="#434A5B"/>
<rect x="335" y="75" width="25" height="239" fill="#4B6EFF"/>
<path d="M312.068 343.112C313.216 343.112 314.154 342.776 314.868 342.09C315.582 341.404 315.946 340.452 315.946 339.22V333.2H314.714V339.15C314.714 341.04 313.65 342.132 312.068 342.132C310.458 342.132 309.408 341.054 309.408 339.15V333.2H308.176V339.22C308.176 340.438 308.526 341.39 309.24 342.076C309.954 342.762 310.892 343.112 312.068 343.112ZM321.499 343.098C322.549 343.098 323.389 342.874 324.033 342.44C324.691 341.992 325.013 341.32 325.013 340.41C324.943 339.29 324.509 338.66 323.571 338.226C322.913 337.904 322.535 337.792 321.709 337.568C321.079 337.4 320.771 337.316 320.281 337.092C320.043 336.98 319.861 336.868 319.735 336.742C319.497 336.504 319.273 336.126 319.273 335.636C319.273 334.53 320.169 334.012 321.415 334.012C322.381 334.012 323.319 334.362 324.229 335.076L324.817 334.236C323.837 333.466 322.689 333.088 321.387 333.088C320.379 333.088 319.553 333.298 318.923 333.732C318.293 334.152 317.971 334.81 317.971 335.692C317.971 337.26 319.077 338.072 320.883 338.52L321.765 338.744C321.975 338.786 322.227 338.87 322.507 338.982C322.801 339.094 323.011 339.206 323.151 339.332C323.445 339.57 323.697 339.962 323.697 340.452C323.697 341.558 322.843 342.146 321.485 342.146C320.295 342.146 319.245 341.656 318.335 340.676L317.607 341.488C318.643 342.566 319.945 343.098 321.499 343.098ZM330.854 343C332.268 343 333.388 342.538 334.228 341.614C335.068 340.69 335.488 339.514 335.474 338.1C335.474 336.686 335.054 335.51 334.2 334.586C333.36 333.662 332.24 333.2 330.854 333.2H327.046V343H330.854ZM328.264 334.166H330.574C331.708 334.166 332.59 334.53 333.22 335.244C333.864 335.958 334.186 336.91 334.186 338.072C334.186 339.262 333.878 340.214 333.248 340.942C332.618 341.67 331.722 342.034 330.56 342.034H328.264V334.166ZM346.979 343V342.118H344.291V333.13H344.067L340.567 333.536L340.609 334.502L343.115 334.208V342.118H340.343V343H346.979ZM353.215 337.806C354.279 337.484 354.951 336.644 354.951 335.58C354.951 333.998 353.649 333.074 351.619 333.074C349.603 333.074 348.301 333.998 348.301 335.58C348.301 336.644 348.959 337.484 350.023 337.806C348.679 338.156 347.881 339.024 347.881 340.354C347.881 341.264 348.231 341.95 348.917 342.426C349.603 342.888 350.513 343.126 351.647 343.126C353.887 343.126 355.357 342.174 355.357 340.382C355.357 339.024 354.545 338.142 353.215 337.806ZM349.491 335.678C349.491 334.572 350.317 333.956 351.619 333.956C352.949 333.956 353.761 334.572 353.761 335.678C353.761 336.672 353.005 337.386 351.619 337.386C350.233 337.386 349.491 336.686 349.491 335.678ZM354.111 340.284C354.111 341.516 353.187 342.244 351.619 342.244C350.051 342.244 349.127 341.516 349.127 340.284C349.127 339.038 350.051 338.282 351.619 338.282C353.187 338.282 354.111 339.038 354.111 340.284ZM357.582 341.67C357.12 341.67 356.798 341.95 356.798 342.412C356.798 342.804 357.036 343.07 357.442 343.07C357.638 343.07 357.778 343 357.848 342.86C357.918 343.21 357.848 343.588 357.61 343.98C357.386 344.386 357.078 344.694 356.7 344.904L357.12 345.212C357.904 344.764 358.562 343.896 358.562 342.93C358.562 342.16 358.142 341.67 357.582 341.67ZM360.106 338.086C360.106 339.64 360.442 340.858 361.1 341.768C361.758 342.678 362.71 343.126 363.942 343.126C365.174 343.126 366.126 342.678 366.784 341.768C367.456 340.858 367.792 339.626 367.792 338.086C367.792 336.56 367.456 335.342 366.798 334.432C366.14 333.522 365.188 333.074 363.956 333.074C362.71 333.074 361.758 333.522 361.1 334.432C360.442 335.328 360.106 336.546 360.106 338.086ZM366.56 338.086C366.56 340.62 365.734 342.16 363.956 342.16C362.178 342.16 361.338 340.62 361.338 338.086C361.338 335.566 362.178 334.04 363.956 334.04C365.706 334.04 366.56 335.566 366.56 338.086ZM369.334 338.086C369.334 339.64 369.67 340.858 370.328 341.768C370.986 342.678 371.938 343.126 373.17 343.126C374.402 343.126 375.354 342.678 376.012 341.768C376.684 340.858 377.02 339.626 377.02 338.086C377.02 336.56 376.684 335.342 376.026 334.432C375.368 333.522 374.416 333.074 373.184 333.074C371.938 333.074 370.986 333.522 370.328 334.432C369.67 335.328 369.334 336.546 369.334 338.086ZM375.788 338.086C375.788 340.62 374.962 342.16 373.184 342.16C371.406 342.16 370.566 340.62 370.566 338.086C370.566 335.566 371.406 334.04 373.184 334.04C374.934 334.04 375.788 335.566 375.788 338.086ZM378.563 338.086C378.563 339.64 378.899 340.858 379.557 341.768C380.215 342.678 381.167 343.126 382.399 343.126C383.631 343.126 384.583 342.678 385.241 341.768C385.913 340.858 386.249 339.626 386.249 338.086C386.249 336.56 385.913 335.342 385.255 334.432C384.597 333.522 383.645 333.074 382.413 333.074C381.167 333.074 380.215 333.522 379.557 334.432C378.899 335.328 378.563 336.546 378.563 338.086ZM385.017 338.086C385.017 340.62 384.191 342.16 382.413 342.16C380.635 342.16 379.795 340.62 379.795 338.086C379.795 335.566 380.635 334.04 382.413 334.04C384.163 334.04 385.017 335.566 385.017 338.086Z" fill="#434A5B"/>
<rect x="442" y="158" width="25" height="156" fill="#F6F6F6"/>
<path d="M419.068 343.112C420.216 343.112 421.154 342.776 421.868 342.09C422.582 341.404 422.946 340.452 422.946 339.22V333.2H421.714V339.15C421.714 341.04 420.65 342.132 419.068 342.132C417.458 342.132 416.408 341.054 416.408 339.15V333.2H415.176V339.22C415.176 340.438 415.526 341.39 416.24 342.076C416.954 342.762 417.892 343.112 419.068 343.112ZM428.499 343.098C429.549 343.098 430.389 342.874 431.033 342.44C431.691 341.992 432.013 341.32 432.013 340.41C431.943 339.29 431.509 338.66 430.571 338.226C429.913 337.904 429.535 337.792 428.709 337.568C428.079 337.4 427.771 337.316 427.281 337.092C427.043 336.98 426.861 336.868 426.735 336.742C426.497 336.504 426.273 336.126 426.273 335.636C426.273 334.53 427.169 334.012 428.415 334.012C429.381 334.012 430.319 334.362 431.229 335.076L431.817 334.236C430.837 333.466 429.689 333.088 428.387 333.088C427.379 333.088 426.553 333.298 425.923 333.732C425.293 334.152 424.971 334.81 424.971 335.692C424.971 337.26 426.077 338.072 427.883 338.52L428.765 338.744C428.975 338.786 429.227 338.87 429.507 338.982C429.801 339.094 430.011 339.206 430.151 339.332C430.445 339.57 430.697 339.962 430.697 340.452C430.697 341.558 429.843 342.146 428.485 342.146C427.295 342.146 426.245 341.656 425.335 340.676L424.607 341.488C425.643 342.566 426.945 343.098 428.499 343.098ZM437.854 343C439.268 343 440.388 342.538 441.228 341.614C442.068 340.69 442.488 339.514 442.474 338.1C442.474 336.686 442.054 335.51 441.2 334.586C440.36 333.662 439.24 333.2 437.854 333.2H434.046V343H437.854ZM435.264 334.166H437.574C438.708 334.166 439.59 334.53 440.22 335.244C440.864 335.958 441.186 336.91 441.186 338.072C441.186 339.262 440.878 340.214 440.248 340.942C439.618 341.67 438.722 342.034 437.56 342.034H435.264V334.166ZM451.571 340.102C452.453 339.248 453.097 338.548 453.475 337.988C453.853 337.428 454.049 336.784 454.049 336.07C454.049 334.152 452.747 333.088 450.675 333.088C449.457 333.088 448.351 333.55 447.371 334.474L448.043 335.3C448.967 334.446 449.821 334.012 450.619 334.012C451.921 334.012 452.775 334.754 452.775 336.098C452.775 336.672 452.621 337.176 452.313 337.624C452.019 338.072 451.515 338.646 450.815 339.346L447.385 342.776V343H454.105V342.034L449.527 342.104L451.571 340.102ZM455.43 338.086C455.43 339.64 455.766 340.858 456.424 341.768C457.082 342.678 458.034 343.126 459.266 343.126C460.498 343.126 461.45 342.678 462.108 341.768C462.78 340.858 463.116 339.626 463.116 338.086C463.116 336.56 462.78 335.342 462.122 334.432C461.464 333.522 460.512 333.074 459.28 333.074C458.034 333.074 457.082 333.522 456.424 334.432C455.766 335.328 455.43 336.546 455.43 338.086ZM461.884 338.086C461.884 340.62 461.058 342.16 459.28 342.16C457.502 342.16 456.662 340.62 456.662 338.086C456.662 335.566 457.502 334.04 459.28 334.04C461.03 334.04 461.884 335.566 461.884 338.086ZM465.457 341.67C464.995 341.67 464.673 341.95 464.673 342.412C464.673 342.804 464.911 343.07 465.317 343.07C465.513 343.07 465.653 343 465.723 342.86C465.793 343.21 465.723 343.588 465.485 343.98C465.261 344.386 464.953 344.694 464.575 344.904L464.995 345.212C465.779 344.764 466.437 343.896 466.437 342.93C466.437 342.16 466.017 341.67 465.457 341.67ZM467.981 338.086C467.981 339.64 468.317 340.858 468.975 341.768C469.633 342.678 470.585 343.126 471.817 343.126C473.049 343.126 474.001 342.678 474.659 341.768C475.331 340.858 475.667 339.626 475.667 338.086C475.667 336.56 475.331 335.342 474.673 334.432C474.015 333.522 473.063 333.074 471.831 333.074C470.585 333.074 469.633 333.522 468.975 334.432C468.317 335.328 467.981 336.546 467.981 338.086ZM474.435 338.086C474.435 340.62 473.609 342.16 471.831 342.16C470.053 342.16 469.213 340.62 469.213 338.086C469.213 335.566 470.053 334.04 471.831 334.04C473.581 334.04 474.435 335.566 474.435 338.086ZM477.209 338.086C477.209 339.64 477.545 340.858 478.203 341.768C478.861 342.678 479.813 343.126 481.045 343.126C482.277 343.126 483.229 342.678 483.887 341.768C484.559 340.858 484.895 339.626 484.895 338.086C484.895 336.56 484.559 335.342 483.901 334.432C483.243 333.522 482.291 333.074 481.059 333.074C479.813 333.074 478.861 333.522 478.203 334.432C477.545 335.328 477.209 336.546 477.209 338.086ZM483.663 338.086C483.663 340.62 482.837 342.16 481.059 342.16C479.281 342.16 478.441 340.62 478.441 338.086C478.441 335.566 479.281 334.04 481.059 334.04C482.809 334.04 483.663 335.566 483.663 338.086ZM486.438 338.086C486.438 339.64 486.774 340.858 487.432 341.768C488.09 342.678 489.042 343.126 490.274 343.126C491.506 343.126 492.458 342.678 493.116 341.768C493.788 340.858 494.124 339.626 494.124 338.086C494.124 336.56 493.788 335.342 493.13 334.432C492.472 333.522 491.52 333.074 490.288 333.074C489.042 333.074 488.09 333.522 487.432 334.432C486.774 335.328 486.438 336.546 486.438 338.086ZM492.892 338.086C492.892 340.62 492.066 342.16 490.288 342.16C488.51 342.16 487.67 340.62 487.67 338.086C487.67 335.566 488.51 334.04 490.288 334.04C492.038 334.04 492.892 335.566 492.892 338.086Z" fill="#434A5B"/>
<rect x="544.5" y="178" width="25" height="136" fill="#F6F6F6"/>
<path d="M522.068 343.112C523.216 343.112 524.154 342.776 524.868 342.09C525.582 341.404 525.946 340.452 525.946 339.22V333.2H524.714V339.15C524.714 341.04 523.65 342.132 522.068 342.132C520.458 342.132 519.408 341.054 519.408 339.15V333.2H518.176V339.22C518.176 340.438 518.526 341.39 519.24 342.076C519.954 342.762 520.892 343.112 522.068 343.112ZM531.499 343.098C532.549 343.098 533.389 342.874 534.033 342.44C534.691 341.992 535.013 341.32 535.013 340.41C534.943 339.29 534.509 338.66 533.571 338.226C532.913 337.904 532.535 337.792 531.709 337.568C531.079 337.4 530.771 337.316 530.281 337.092C530.043 336.98 529.861 336.868 529.735 336.742C529.497 336.504 529.273 336.126 529.273 335.636C529.273 334.53 530.169 334.012 531.415 334.012C532.381 334.012 533.319 334.362 534.229 335.076L534.817 334.236C533.837 333.466 532.689 333.088 531.387 333.088C530.379 333.088 529.553 333.298 528.923 333.732C528.293 334.152 527.971 334.81 527.971 335.692C527.971 337.26 529.077 338.072 530.883 338.52L531.765 338.744C531.975 338.786 532.227 338.87 532.507 338.982C532.801 339.094 533.011 339.206 533.151 339.332C533.445 339.57 533.697 339.962 533.697 340.452C533.697 341.558 532.843 342.146 531.485 342.146C530.295 342.146 529.245 341.656 528.335 340.676L527.607 341.488C528.643 342.566 529.945 343.098 531.499 343.098ZM540.854 343C542.268 343 543.388 342.538 544.228 341.614C545.068 340.69 545.488 339.514 545.474 338.1C545.474 336.686 545.054 335.51 544.2 334.586C543.36 333.662 542.24 333.2 540.854 333.2H537.046V343H540.854ZM538.264 334.166H540.574C541.708 334.166 542.59 334.53 543.22 335.244C543.864 335.958 544.186 336.91 544.186 338.072C544.186 339.262 543.878 340.214 543.248 340.942C542.618 341.67 541.722 342.034 540.56 342.034H538.264V334.166ZM554.571 340.102C555.453 339.248 556.097 338.548 556.475 337.988C556.853 337.428 557.049 336.784 557.049 336.07C557.049 334.152 555.747 333.088 553.675 333.088C552.457 333.088 551.351 333.55 550.371 334.474L551.043 335.3C551.967 334.446 552.821 334.012 553.619 334.012C554.921 334.012 555.775 334.754 555.775 336.098C555.775 336.672 555.621 337.176 555.313 337.624C555.019 338.072 554.515 338.646 553.815 339.346L550.385 342.776V343H557.105V342.034L552.527 342.104L554.571 340.102ZM564.854 343V342.118H562.166V333.13H561.942L558.442 333.536L558.484 334.502L560.99 334.208V342.118H558.218V343H564.854ZM566.734 341.67C566.272 341.67 565.95 341.95 565.95 342.412C565.95 342.804 566.188 343.07 566.594 343.07C566.79 343.07 566.93 343 567 342.86C567.07 343.21 567 343.588 566.762 343.98C566.538 344.386 566.23 344.694 565.852 344.904L566.272 345.212C567.056 344.764 567.714 343.896 567.714 342.93C567.714 342.16 567.294 341.67 566.734 341.67ZM569.258 338.086C569.258 339.64 569.594 340.858 570.252 341.768C570.91 342.678 571.862 343.126 573.094 343.126C574.326 343.126 575.278 342.678 575.936 341.768C576.608 340.858 576.944 339.626 576.944 338.086C576.944 336.56 576.608 335.342 575.95 334.432C575.292 333.522 574.34 333.074 573.108 333.074C571.862 333.074 570.91 333.522 570.252 334.432C569.594 335.328 569.258 336.546 569.258 338.086ZM575.712 338.086C575.712 340.62 574.886 342.16 573.108 342.16C571.33 342.16 570.49 340.62 570.49 338.086C570.49 335.566 571.33 334.04 573.108 334.04C574.858 334.04 575.712 335.566 575.712 338.086ZM578.487 338.086C578.487 339.64 578.823 340.858 579.481 341.768C580.139 342.678 581.091 343.126 582.323 343.126C583.555 343.126 584.507 342.678 585.165 341.768C585.837 340.858 586.173 339.626 586.173 338.086C586.173 336.56 585.837 335.342 585.179 334.432C584.521 333.522 583.569 333.074 582.337 333.074C581.091 333.074 580.139 333.522 579.481 334.432C578.823 335.328 578.487 336.546 578.487 338.086ZM584.941 338.086C584.941 340.62 584.115 342.16 582.337 342.16C580.559 342.16 579.719 340.62 579.719 338.086C579.719 335.566 580.559 334.04 582.337 334.04C584.087 334.04 584.941 335.566 584.941 338.086ZM587.715 338.086C587.715 339.64 588.051 340.858 588.709 341.768C589.367 342.678 590.319 343.126 591.551 343.126C592.783 343.126 593.735 342.678 594.393 341.768C595.065 340.858 595.401 339.626 595.401 338.086C595.401 336.56 595.065 335.342 594.407 334.432C593.749 333.522 592.797 333.074 591.565 333.074C590.319 333.074 589.367 333.522 588.709 334.432C588.051 335.328 587.715 336.546 587.715 338.086ZM594.169 338.086C594.169 340.62 593.343 342.16 591.565 342.16C589.787 342.16 588.947 340.62 588.947 338.086C588.947 335.566 589.787 334.04 591.565 334.04C593.315 334.04 594.169 335.566 594.169 338.086Z" fill="#434A5B"/>
</svg>
