<svg width="18" height="18" viewBox="0 0 18 18" fill="none" xmlns="http://www.w3.org/2000/svg">
<path d="M10.8423 17.25C10.3931 17.25 9.97147 17.0392 9.62314 16.8558C9.40314 16.7458 9.1373 16.6083 8.9998 16.6083C8.8623 16.6083 8.5873 16.7458 8.37647 16.8558C7.93647 17.085 7.38647 17.36 6.79979 17.2042C6.19479 17.0483 5.86479 16.5167 5.58979 16.095C5.47063 15.9025 5.30563 15.6458 5.19563 15.5817C5.08563 15.5175 4.79229 15.5083 4.54479 15.49C4.04979 15.4625 3.43563 15.435 2.99563 15.0042C2.55563 14.555 2.52813 13.9408 2.50063 13.4458C2.49146 13.2075 2.47313 12.905 2.40896 12.795C2.35396 12.6942 2.08813 12.5292 1.90479 12.41C1.48313 12.135 0.960628 11.7958 0.795628 11.2C0.639795 10.6133 0.914795 10.0633 1.14396 9.62332C1.25396 9.40332 1.39146 9.13749 1.39146 8.99999C1.39146 8.86249 1.25396 8.58749 1.14396 8.37666C0.914795 7.93666 0.639795 7.38666 0.795628 6.80001C0.951461 6.19501 1.48313 5.86501 1.90479 5.59001C2.09729 5.47084 2.35396 5.30584 2.41813 5.19584C2.48229 5.08584 2.49146 4.79251 2.50979 4.54501C2.53729 4.05001 2.56479 3.43584 2.99563 2.99584C3.44479 2.55584 4.05896 2.52834 4.55396 2.50084C4.79229 2.49167 5.09479 2.47334 5.20479 2.40917C5.30563 2.35417 5.47063 2.08834 5.58979 1.90501C5.86479 1.48334 6.20396 0.960842 6.79979 0.795842C7.38647 0.640008 7.93647 0.915008 8.37647 1.14418C8.59647 1.25418 8.8623 1.39168 8.9998 1.39168C9.1373 1.39168 9.4123 1.25418 9.62314 1.14418C10.0631 0.924175 10.6131 0.640008 11.1998 0.795842C11.8048 0.951675 12.1348 1.48334 12.4098 1.90501C12.529 2.09751 12.694 2.35418 12.804 2.41834C12.914 2.48251 13.2073 2.49167 13.4548 2.51001C13.9498 2.53751 14.564 2.56501 15.004 2.99584C15.444 3.44501 15.4715 4.05918 15.499 4.55417C15.5081 4.79251 15.5265 5.09501 15.5906 5.20501C15.6456 5.30584 15.9115 5.47084 16.0948 5.59001C16.5165 5.86501 17.039 6.20417 17.204 6.80001C17.3598 7.38666 17.0848 7.93666 16.8556 8.37666C16.7456 8.59666 16.6081 8.86249 16.6081 8.99999C16.6081 9.13749 16.7456 9.41249 16.8556 9.62332C17.0848 10.0633 17.3598 10.6133 17.204 11.2C17.0481 11.805 16.5165 12.135 16.0948 12.41C15.9023 12.5292 15.6456 12.6942 15.5815 12.8042C15.5173 12.9142 15.5081 13.2075 15.4898 13.455C15.4623 13.95 15.4348 14.5642 15.004 15.0042C14.5548 15.4442 13.9406 15.4717 13.4456 15.4992C13.2073 15.5083 12.9048 15.5267 12.7948 15.5908C12.694 15.6458 12.529 15.9117 12.4098 16.095C12.1348 16.5167 11.7956 17.0392 11.1998 17.2042C11.0806 17.2408 10.9615 17.25 10.8423 17.25ZM7.16646 2.12501C7.16646 2.12501 7.16646 2.12501 7.15729 2.12501C7.06563 2.16167 6.85479 2.47334 6.75396 2.64751C6.53396 2.98668 6.28646 3.37168 5.89229 3.60084C5.48896 3.83001 5.03063 3.85751 4.61813 3.87584C4.41646 3.88501 4.04063 3.90334 3.95813 3.96751C3.90313 4.04084 3.88479 4.40751 3.87563 4.60917C3.85729 5.02167 3.82979 5.48001 3.60063 5.87418C3.37146 6.26834 2.98646 6.51584 2.64729 6.73584C2.47313 6.84584 2.16146 7.04751 2.12479 7.14834C2.11563 7.24916 2.27146 7.56082 2.36313 7.74416C2.54646 8.11082 2.76646 8.52332 2.76646 8.99082C2.76646 9.45832 2.55563 9.87082 2.36313 10.2375C2.27146 10.4208 2.10646 10.7325 2.12479 10.8333C2.16146 10.925 2.47313 11.1358 2.64729 11.2367C2.98646 11.4567 3.37146 11.7042 3.60063 12.0983C3.82979 12.5017 3.85729 12.96 3.87563 13.3725C3.88479 13.5742 3.90313 13.95 3.96729 14.0325C4.04063 14.0875 4.40729 14.1058 4.60896 14.115C5.02146 14.1333 5.47979 14.1608 5.87396 14.39C6.26813 14.6192 6.51563 15.0042 6.73563 15.3433C6.84563 15.5175 7.04729 15.8292 7.14813 15.8658C7.2398 15.8933 7.56064 15.7192 7.74397 15.6275C8.11064 15.4442 8.52314 15.2242 8.99064 15.2242C9.45814 15.2242 9.87064 15.435 10.2373 15.6275C10.4206 15.7192 10.714 15.8933 10.8331 15.8658C10.9248 15.8292 11.1356 15.5175 11.2365 15.3433C11.4565 15.0042 11.704 14.6192 12.0981 14.39C12.5015 14.1608 12.9598 14.1333 13.3723 14.115C13.574 14.1058 13.9498 14.0875 14.0323 14.0233C14.0873 13.95 14.1056 13.5833 14.1148 13.3817C14.1331 12.9692 14.1606 12.5108 14.3898 12.1167C14.619 11.7225 15.004 11.475 15.3431 11.255C15.5173 11.145 15.829 10.9433 15.8656 10.8425C15.8748 10.7417 15.719 10.43 15.6273 10.2467C15.444 9.87999 15.224 9.46749 15.224 8.99999C15.224 8.53249 15.4348 8.11999 15.6273 7.75332C15.719 7.56999 15.8748 7.25832 15.8656 7.15751C15.829 7.05667 15.5081 6.85501 15.3431 6.74501C15.004 6.52501 14.619 6.27751 14.3898 5.88334C14.1606 5.48001 14.1331 5.02167 14.1148 4.60917C14.1056 4.40751 14.0873 4.03167 14.0231 3.94917C13.9498 3.89417 13.5831 3.87584 13.3815 3.86667C12.969 3.84834 12.5106 3.82084 12.1165 3.59167C11.7223 3.36251 11.4748 2.97751 11.2548 2.63834C11.1448 2.46417 10.9431 2.15251 10.8423 2.11584C10.7506 2.08834 10.4298 2.26251 10.2465 2.35417C9.8798 2.53751 9.4673 2.75751 8.9998 2.75751C8.5323 2.75751 8.1198 2.54667 7.75314 2.35417C7.5698 2.26251 7.27647 2.11584 7.16646 2.11584V2.12501ZM7.61564 12.2175C7.4323 12.2175 7.25814 12.1442 7.12979 12.0158L4.82896 9.71499C4.56313 9.44915 4.56313 9.00916 4.82896 8.74332C5.09479 8.47749 5.53479 8.47749 5.80063 8.74332L7.61564 10.5583L12.1898 5.98417C12.4556 5.71834 12.8956 5.71834 13.1615 5.98417C13.4273 6.25001 13.4273 6.69001 13.1615 6.95584L8.10147 12.0158C7.97314 12.1442 7.79897 12.2175 7.61564 12.2175Z" fill="#4B6EFF"/>
</svg>
